<?xml version="1.0" encoding="utf-8"?>
<!-- Generator: Adobe Illustrator 25.4.8, SVG Export Plug-In . SVG Version: 6.00 Build 0)  -->
<svg version="1.1" id="Warstwa_1" xmlns="http://www.w3.org/2000/svg" xmlns:xlink="http://www.w3.org/1999/xlink" x="0px" y="0px"
	 width="18" height="18" viewBox="0 0 18 18" enable-background="new 0 0 18 18" xml:space="preserve">
<path opacity="0.5" fill="#7F9DCC" d="M15.5,15h-13C2.2,15,2,14.8,2,14.5S2.2,14,2.5,14h13c0.3,0,0.5,0.2,0.5,0.5S15.8,15,15.5,15z"
	/>
<path opacity="0.5" fill="#7F9DCC" d="M15.5,10h-13C2.2,10,2,9.8,2,9.5S2.2,9,2.5,9h13C15.8,9,16,9.2,16,9.5S15.8,10,15.5,10z"/>
<path opacity="0.5" fill="#7F9DCC" d="M15.5,13h-13C2.2,13,2,12.8,2,12.5S2.2,12,2.5,12h13c0.3,0,0.5,0.2,0.5,0.5S15.8,13,15.5,13z"
	/>
<path opacity="0.5" fill="#7F9DCC" d="M15.5,4h-13C2.2,4,2,3.8,2,3.5S2.2,3,2.5,3h13C15.8,3,16,3.2,16,3.5S15.8,4,15.5,4z"/>
<path fill="#7F9DCC" d="M2.5,15.1c-0.1,0-0.3,0-0.4-0.1c-0.3-0.2-0.3-0.6-0.2-0.9l3.5-5C5.6,9,5.8,8.9,6,8.9c0.2,0,0.3,0,0.5,0.1
	l3,2.5L15,3.2c0.2-0.3,0.6-0.4,0.9-0.2c0.3,0.2,0.4,0.6,0.2,0.9l-5.9,8.9C10,13,9.9,13.1,9.7,13.1c-0.2,0-0.4,0-0.5-0.1l-3-2.6
	L3,14.9C2.9,15,2.7,15.1,2.5,15.1z"/>
</svg>
