<?xml version="1.0" encoding="utf-8"?>
<!-- Generator: Adobe Illustrator 25.4.8, SVG Export Plug-In . SVG Version: 6.00 Build 0)  -->
<svg version="1.1" id="Warstwa_1" xmlns="http://www.w3.org/2000/svg" xmlns:xlink="http://www.w3.org/1999/xlink" x="0px" y="0px"
	 width="18" height="18" viewBox="0 0 18 18" enable-background="new 0 0 18 18" xml:space="preserve">
<g id="ellipse">
	<path fill="#7F9DCC" d="M9,15c-4.7,0-8.5-2.5-8.5-5.5S4.3,4,9,4s8.5,2.5,8.5,5.5S13.7,15,9,15z M9,5C4.9,5,1.5,7,1.5,9.5
		S4.9,14,9,14s7.5-2,7.5-4.5S13.1,5,9,5z"/>
	<g>
		<g>
			
				<rect x="0.4" y="13.8" transform="matrix(0.8482 -0.5296 0.5296 0.8482 -7.4109 2.6395)" fill="#7F9DCC" width="0.9" height="1"/>
			<path fill="#7F9DCC" d="M3.3,13.4l-0.5-0.9l1.8-1L5,12.4L3.3,13.4z M6.8,11.3l-0.5-0.9l1.8-1l0.5,0.9L6.8,11.3z M10.4,9.2
				L9.9,8.4l1.8-1l0.5,0.9L10.4,9.2z M14,7.1l-0.5-0.9l1.8-1l0.5,0.9L14,7.1z"/>
			
				<rect x="16.6" y="4.3" transform="matrix(0.8482 -0.5296 0.5296 0.8482 7.966414e-02 9.778)" fill="#7F9DCC" width="0.9" height="1"/>
		</g>
	</g>
</g>
</svg>
