<?xml version="1.0" encoding="utf-8"?>
<!-- Generator: Adobe Illustrator 25.4.8, SVG Export Plug-In . SVG Version: 6.00 Build 0)  -->
<svg version="1.1" id="Warstwa_1" xmlns="http://www.w3.org/2000/svg" xmlns:xlink="http://www.w3.org/1999/xlink" x="0px" y="0px"
	 width="18" height="18" viewBox="0 0 18 18" enable-background="new 0 0 18 18" xml:space="preserve">
<path fill="#7F9DCC" d="M14.5,15H10c-3.8,0-5.8-2.8-5.8-5.5S6.2,4,10,4h4.5C16.1,4,17,4.9,17,6.5v6C17,14.1,16.1,15,14.5,15z M10,5
	C6.7,5,5.3,7.3,5.3,9.5S6.7,14,10,14h4.5c1.1,0,1.5-0.4,1.5-1.5v-6c0-1-0.5-1.5-1.5-1.5H10z"/>
<g>
	<path fill="#7F9DCC" d="M11.6,12.1c-0.2,0-0.4,0-0.6-0.1c-0.2,0-0.4-0.1-0.6-0.2c-0.2-0.1-0.3-0.2-0.5-0.3l0.3-0.7
		c0.2,0.2,0.4,0.3,0.7,0.4c0.2,0.1,0.5,0.1,0.7,0.1c0.3,0,0.5-0.1,0.7-0.2c0.2-0.2,0.3-0.4,0.3-0.6c0-0.3-0.1-0.5-0.2-0.6
		c-0.2-0.2-0.4-0.2-0.7-0.2c-0.2,0-0.4,0-0.6,0.1c-0.2,0.1-0.3,0.2-0.4,0.4H10V7h3.1v0.8h-2.2v1.6h-0.2c0.1-0.2,0.3-0.3,0.5-0.4
		c0.2-0.1,0.4-0.1,0.7-0.1c0.3,0,0.6,0.1,0.8,0.2c0.2,0.1,0.4,0.3,0.6,0.6c0.1,0.2,0.2,0.5,0.2,0.8c0,0.3-0.1,0.6-0.2,0.9
		c-0.1,0.2-0.4,0.4-0.6,0.6C12.3,12,12,12.1,11.6,12.1z"/>
</g>
<path fill="#7F9DCC" d="M4.6,10H0.5C0.2,10,0,9.8,0,9.5S0.2,9,0.5,9h4.1c0.3,0,0.5,0.2,0.5,0.5S4.9,10,4.6,10z"/>
</svg>
