<?xml version="1.0" encoding="utf-8"?>
<!-- Generator: Adobe Illustrator 25.4.8, SVG Export Plug-In . SVG Version: 6.00 Build 0)  -->
<svg version="1.1" id="Warstwa_1" xmlns="http://www.w3.org/2000/svg" xmlns:xlink="http://www.w3.org/1999/xlink" x="0px" y="0px"
	 width="18" height="18" viewBox="0 0 18 18" enable-background="new 0 0 18 18" xml:space="preserve">
<path fill="#7F9DCC" d="M6.1,16c-1.7,0-2.8-1.2-2.8-3V5.5c0-1.5,1.1-3,2.8-3V4c-1,0-1.3,0.9-1.3,1.5V13c0,1,0.5,1.5,1.3,1.5V16z"/>
<rect x="1.5" y="8.3" fill="#7F9DCC" width="2" height="1.5"/>
<rect x="12" y="2.5" fill="#7F9DCC" width="3" height="1.5"/>
<rect x="12" y="14.5" fill="#7F9DCC" width="3" height="1.5"/>
<rect x="8" y="14.5" fill="#7F9DCC" width="3" height="1.5"/>
<rect x="6" y="14.5" fill="#7F9DCC" width="1" height="1.5"/>
<rect x="8" y="2.5" fill="#7F9DCC" width="3" height="1.5"/>
<rect x="6" y="2.5" fill="#7F9DCC" width="1" height="1.5"/>
</svg>
