<?xml version="1.0" encoding="utf-8"?>
<!-- Generator: Adobe Illustrator 25.4.8, SVG Export Plug-In . SVG Version: 6.00 Build 0)  -->
<svg version="1.1" id="Warstwa_1" xmlns="http://www.w3.org/2000/svg" xmlns:xlink="http://www.w3.org/1999/xlink" x="0px" y="0px"
	 width="18" height="18" viewBox="0 0 18 18" enable-background="new 0 0 18 18" xml:space="preserve">
<path fill="#7F9DCC" d="M15.5,7.1H14c0-1-0.9-1.4-1.5-1.4H5.1c-1,0-1.5,0.5-1.5,1.4H2c0-1.7,1.2-2.9,3-2.9h7.5
	C14,4.2,15.5,5.3,15.5,7.1z"/>
<rect x="8.3" y="2.5" fill="#7F9DCC" width="1.5" height="2"/>
<rect x="13.3" y="12.7" transform="matrix(-1.836970e-16 1 -1 -1.836970e-16 28.2641 -1.3141)" fill="#7F9DCC" width="3" height="1.5"/>
<rect x="1.3" y="12.7" transform="matrix(-1.836970e-16 1 -1 -1.836970e-16 16.2641 10.6859)" fill="#7F9DCC" width="3" height="1.5"/>
<rect x="1.3" y="8.7" transform="matrix(-1.836970e-16 1 -1 -1.836970e-16 12.2797 6.7016)" fill="#7F9DCC" width="3" height="1.5"/>
<rect x="13.3" y="8.7" transform="matrix(-1.836970e-16 1 -1 -1.836970e-16 24.2797 -5.2984)" fill="#7F9DCC" width="3" height="1.5"/>
</svg>
