<?xml version="1.0" encoding="utf-8"?>
<!-- Generator: Adobe Illustrator 25.4.8, SVG Export Plug-In . SVG Version: 6.00 Build 0)  -->
<svg version="1.1" id="Warstwa_1" xmlns="http://www.w3.org/2000/svg" xmlns:xlink="http://www.w3.org/1999/xlink" x="0px" y="0px"
	 width="18" height="18" viewBox="0 0 18 18" enable-background="new 0 0 18 18" xml:space="preserve">
<g>
	<g>
		<rect x="1.5" y="13.2" transform="matrix(0.8141 -0.5808 0.5808 0.8141 -7.6231 3.6891)" fill="#7F9DCC" width="0.9" height="1"/>
		<path fill="#7F9DCC" d="M4.1,12.9l-0.6-0.8l1.7-1.2l0.6,0.8L4.1,12.9z M7.5,10.6L7,9.8l1.7-1.2l0.6,0.8L7.5,10.6z M11,8.3
			l-0.6-0.8l1.7-1.2l0.6,0.8L11,8.3z M14.4,6l-0.6-0.8l0.9-0.6l0.6,0.8L14.4,6z"/>
		
			<rect x="15.7" y="3.8" transform="matrix(0.868 -0.4966 0.4966 0.868 -3.362921e-03 8.587)" fill="#7F9DCC" width="0.8" height="1"/>
	</g>
</g>
<path fill="#7F9DCC" d="M15.5,4.5v9h-13v-9H15.5 M16,3H2C1.4,3,1,3.4,1,4v10c0,0.6,0.4,1,1,1h14c0.6,0,1-0.4,1-1V4
	C17,3.4,16.6,3,16,3L16,3z"/>
</svg>
