<?xml version="1.0" encoding="utf-8"?>
<!-- Generator: Adobe Illustrator 20.1.0, SVG Export Plug-In . SVG Version: 6.00 Build 0)  -->
<svg version="1.1" id="Warstwa_1" xmlns="http://www.w3.org/2000/svg" xmlns:xlink="http://www.w3.org/1999/xlink" x="0px" y="0px"
	 viewBox="0 0 664.5 397.4" style="enable-background:new 0 0 664.5 397.4;" xml:space="preserve">
<style type="text/css">
	.st0{display:none;fill:#194D7A;}
	.st1{fill:#1A3F61;}
	.st2{fill:#184D7A;}
	.st3{fill:#2195F3;}
	.st4{fill:#2195F3;stroke:#184D7A;stroke-width:5;stroke-miterlimit:10;}
	.st5{fill:#194D7A;}
	.st6{fill:none;stroke:#2195F3;stroke-width:5;stroke-miterlimit:10;}
	.st7{opacity:0.5;fill:none;stroke:#2195F3;stroke-width:2;stroke-miterlimit:10;stroke-dasharray:8;enable-background:new    ;}
</style>
<rect x="-92.5" y="-91" class="st0" width="841.3" height="522"/>
<rect y="14.1" class="st1" width="664.5" height="22.1"/>
<rect y="331.2" class="st1" width="664.5" height="22.1"/>
<path class="st2" d="M37.8,46.6c-11.9,0-21.5-9.7-21.5-21.5c0-11.9,9.7-21.5,21.5-21.5s21.5,9.7,21.5,21.5
	C59.4,37,49.7,46.6,37.8,46.6z"/>
<path class="st3" d="M37.8,5.1c11.1,0,20,9,20,20s-9,20-20,20s-20-9-20-20S26.8,5.1,37.8,5.1 M37.8,2.1c-12.7,0-23,10.3-23,23
	s10.3,23,23,23s23-10.3,23-23S50.6,2.1,37.8,2.1L37.8,2.1z"/>
<path class="st3" d="M37.8,22.5l2.5-5.1h4.3l-4.3,7.7l4.4,7.8h-4.3l-2.6-5.2l-2.6,5.2h-4.3l4.4-7.8L31,17.4h4.2L37.8,22.5z"/>
<g>
	<path class="st4" d="M404.1,47.8c-12.5,0-22.7-10.2-22.7-22.7s10.2-22.7,22.7-22.7c12.4,0,22.7,10.2,22.7,22.7
		C426.8,37.7,416.6,47.8,404.1,47.8z"/>
	<polygon class="st5" points="396.3,29.6 404.1,17.6 411.9,29.6 	"/>
</g>
<g>
	<path class="st4" d="M487.3,47.8c-12.5,0-22.7-10.2-22.7-22.7s10.2-22.7,22.7-22.7c12.4,0,22.7,10.2,22.7,22.7
		C510,37.7,499.8,47.8,487.3,47.8z"/>
	<polygon class="st5" points="479.5,29.6 487.3,17.6 495.1,29.6 	"/>
</g>
<g>
	<path class="st4" d="M154.3,47.9c-12.6,0-22.7-10.3-22.7-22.7c0-12.6,10.3-22.7,22.7-22.7c12.5,0,22.7,10.3,22.7,22.7
		C177.2,37.7,166.9,47.9,154.3,47.9z"/>
	<polygon class="st5" points="162.1,20.7 154.3,32.7 146.6,20.7 	"/>
</g>
<g>
	<path class="st4" d="M237.5,47.9c-12.6,0-22.7-10.3-22.7-22.7c0-12.6,10.3-22.7,22.7-22.7c12.4,0,22.8,10.1,22.8,22.6
		C260.4,37.7,250.1,47.9,237.5,47.9z"/>
	<polygon class="st5" points="245.3,20.7 237.5,32.7 229.7,20.7 	"/>
</g>
<g>
	<path class="st4" d="M569.5,47.9c-12.6,0-22.7-10.3-22.7-22.7c0-12.6,10.3-22.7,22.7-22.7c12.4,0,22.8,10.1,22.8,22.6
		C592.4,37.7,582.1,47.9,569.5,47.9z"/>
	<polygon class="st5" points="577.3,20.7 569.5,32.7 561.7,20.7 	"/>
</g>
<path class="st4" d="M320.8,47.9c-12.6,0-22.7-10.3-22.7-22.7c0-12.6,10.3-22.7,22.7-22.7s22.8,10.1,22.8,22.6
	C343.7,37.7,333.4,47.9,320.8,47.9z"/>
<g>
	<path class="st3" d="M663.9,165.8c0,2-0.5,3.6-1.4,4.7c-0.9,1.1-2.2,1.7-3.9,1.7s-3-0.6-3.9-1.7c-0.9-1.1-1.4-2.7-1.4-4.7V163
		c0-2,0.5-3.6,1.4-4.7s2.2-1.7,3.9-1.7s3,0.6,3.9,1.7c0.9,1.1,1.4,2.7,1.4,4.7V165.8z M660.4,162.6c0-1.1-0.1-1.9-0.4-2.4
		s-0.7-0.8-1.3-0.8s-1,0.2-1.3,0.7s-0.4,1.2-0.4,2.3v3.9c0,1.1,0.1,1.9,0.4,2.5c0.3,0.5,0.7,0.8,1.3,0.8s1-0.3,1.3-0.8
		s0.4-1.3,0.4-2.4V162.6z"/>
</g>
<polyline class="st6" points="628.8,131.9 570.6,131.9 570.6,99.4 487.3,99.4 487.3,131.9 404.1,131.9 404.1,164.5 320.8,164.5 
	320.8,229.4 237.5,229.4 237.5,196.6 154.4,196.6 154.3,164.4 0,164.4 "/>
<line class="st7" x1="628.8" y1="99.4" x2="0" y2="99.4"/>
<line class="st7" x1="628.8" y1="131.9" x2="0" y2="131.9"/>
<line class="st7" x1="628.8" y1="164.4" x2="0" y2="164.4"/>
<line class="st7" x1="628.8" y1="196.9" x2="0" y2="196.9"/>
<line class="st7" x1="628.8" y1="229.4" x2="0" y2="229.4"/>
<path class="st5" d="M320.8,22.4l2.1-3.3h4.8l-3.9,5.9l4.1,6.2h-4.8l-2.3-3.6l-2.3,3.6h-4.8l4.1-6.2l-3.9-5.9h4.8L320.8,22.4z"/>
<g>
	<path class="st4" d="M404.1,364.8c-12.5,0-22.7-10.2-22.7-22.7s10.2-22.7,22.7-22.7c12.4,0,22.7,10.2,22.7,22.7
		C426.8,354.7,416.6,364.8,404.1,364.8z"/>
	<polygon class="st5" points="396.3,346.6 404.1,334.6 411.9,346.6 	"/>
</g>
<g>
	<path class="st4" d="M320.8,364.8c-12.5,0-22.7-10.2-22.7-22.7s10.2-22.7,22.7-22.7c12.4,0,22.7,10.2,22.7,22.7
		C343.5,354.7,333.3,364.8,320.8,364.8z"/>
	<polygon class="st5" points="313,346.6 320.8,334.6 328.6,346.6 	"/>
</g>
<g>
	<path class="st4" d="M487.3,364.8c-12.5,0-22.7-10.2-22.7-22.7s10.2-22.7,22.7-22.7c12.4,0,22.7,10.2,22.7,22.7
		C510,354.7,499.8,364.8,487.3,364.8z"/>
	<polygon class="st5" points="479.5,346.6 487.3,334.6 495.1,346.6 	"/>
</g>
<g>
	<path class="st4" d="M154.3,364.9c-12.6,0-22.7-10.3-22.7-22.7c0-12.6,10.3-22.7,22.7-22.7c12.5,0,22.7,10.3,22.7,22.7
		C177.2,354.7,166.9,364.9,154.3,364.9z"/>
	<polygon class="st5" points="162.1,337.7 154.3,349.7 146.6,337.7 	"/>
</g>
<g>
	<path class="st4" d="M237.5,364.9c-12.6,0-22.7-10.3-22.7-22.7c0-12.6,10.3-22.7,22.7-22.7c12.4,0,22.8,10.1,22.8,22.6
		C260.4,354.7,250.1,364.9,237.5,364.9z"/>
	<polygon class="st5" points="245.3,337.7 237.5,349.7 229.7,337.7 	"/>
</g>
<g>
	<path class="st4" d="M569.5,364.9c-12.6,0-22.7-10.3-22.7-22.7c0-12.6,10.3-22.7,22.7-22.7c12.4,0,22.8,10.1,22.8,22.6
		C592.4,354.7,582.1,364.9,569.5,364.9z"/>
	<polygon class="st5" points="577.3,337.7 569.5,349.7 561.7,337.7 	"/>
</g>
<g>
	<path class="st3" d="M650.5,232h-6.3v-2.7h6.3V232z"/>
	<path class="st3" d="M663.8,237.2h-10.6v-2.3l4.9-5.1c1.2-1.4,1.8-2.5,1.8-3.3c0-0.7-0.1-1.2-0.4-1.5c-0.3-0.3-0.7-0.5-1.2-0.5
		c-0.5,0-1,0.2-1.3,0.7c-0.3,0.5-0.5,1-0.5,1.7h-3.5c0-0.9,0.2-1.8,0.7-2.6c0.5-0.8,1.1-1.4,1.9-1.9c0.8-0.4,1.8-0.7,2.8-0.7
		c1.6,0,2.9,0.4,3.8,1.1c0.9,0.8,1.3,1.8,1.3,3.3c0,0.6-0.1,1.2-0.3,1.8c-0.2,0.6-0.6,1.2-1,1.8c-0.5,0.6-1.2,1.5-2.3,2.5l-2,2.3h6
		V237.2z"/>
</g>
<path class="st3" d="M663.8,107.2h-10.6v-2.3l4.9-5.1c1.2-1.4,1.8-2.5,1.8-3.3c0-0.7-0.1-1.2-0.4-1.5c-0.3-0.3-0.7-0.5-1.2-0.5
	c-0.5,0-1,0.2-1.3,0.7c-0.3,0.5-0.5,1-0.5,1.7h-3.5c0-0.9,0.2-1.8,0.7-2.6c0.5-0.8,1.1-1.4,1.9-1.9c0.8-0.4,1.8-0.7,2.8-0.7
	c1.6,0,2.9,0.4,3.8,1.1c0.9,0.8,1.3,1.8,1.3,3.3c0,0.6-0.1,1.2-0.3,1.8c-0.2,0.6-0.6,1.2-1,1.8c-0.5,0.6-1.2,1.5-2.3,2.5l-2,2.3h6
	V107.2z"/>
<g>
	<path class="st3" d="M652.6,199.3h-6.2v-2.7h6.2V199.3z"/>
	<path class="st3" d="M663,204.5h-3.5v-11.1l-3.4,1v-2.7l6.6-2.3h0.3V204.5z"/>
</g>
<g>
	<path class="st3" d="M661.4,139.5h-3.5v-11.1l-3.4,1v-2.7l6.6-2.3h0.3V139.5z"/>
</g>
<g>
	<path class="st3" d="M156.3,397.4h-3.5v-11.1l-3.4,1v-2.6l6.6-2.3h0.3V397.4z"/>
</g>
<g>
	<path class="st3" d="M239.4,397.4h-3.5v-11.1l-3.4,1v-2.6l6.6-2.3h0.3V397.4z"/>
</g>
<g>
	<path class="st3" d="M406.3,397.4h-3.5v-11.1l-3.4,1v-2.6l6.6-2.3h0.3V397.4z"/>
</g>
<g>
	<path class="st3" d="M489.4,397.4h-3.5v-11.1l-3.4,1v-2.6l6.6-2.3h0.3V397.4z"/>
</g>
<g>
	<path class="st3" d="M571.4,397.4h-3.5v-11.1l-3.4,1v-2.6l6.6-2.3h0.3V397.4z"/>
</g>
<g>
	<path class="st3" d="M326.3,397.4h-10.5v-2.3l4.8-5.1c1.2-1.4,1.8-2.4,1.8-3.2c0-0.6-0.1-1.1-0.4-1.5s-0.7-0.5-1.2-0.5
		c-0.5,0-1,0.2-1.3,0.7s-0.5,1-0.5,1.7h-3.5c0-0.9,0.2-1.8,0.7-2.6c0.5-0.8,1.1-1.4,1.9-1.8c0.8-0.4,1.7-0.7,2.8-0.7
		c1.6,0,2.9,0.4,3.8,1.1s1.3,1.8,1.3,3.2c0,0.6-0.1,1.2-0.3,1.7c-0.2,0.6-0.6,1.2-1,1.8s-1.2,1.4-2.2,2.5l-1.9,2.2h5.9V397.4z"/>
</g>
<g>
	<path class="st3" d="M239.6,274v0.2v5.2h4.5l-6.6,7.2l-6.6-7.2h4.5v-5.2V274H239.6z"/>
</g>
<g>
	<path class="st3" d="M156.5,274v0.2v5.2h4.5l-6.6,7.2l-6.6-7.2h4.5v-5.2V274H156.5z"/>
</g>
<g>
	<path class="st3" d="M322.9,274v0.2v5.2h4.5l-6.6,7.2l-6.6-7.2h4.5v-5.2V274H322.9z"/>
</g>
<g>
	<path class="st3" d="M406.2,274v0.2v5.2h4.5l-6.6,7.2l-6.6-7.2h4.5v-5.2V274H406.2z"/>
</g>
<g>
	<path class="st3" d="M489.4,274v0.2v5.2h4.5l-6.6,7.2l-6.6-7.2h4.5v-5.2V274H489.4z"/>
</g>
<g>
	<path class="st3" d="M571.7,274v0.2v5.2h4.5l-6.6,7.2l-6.6-7.2h4.5v-5.2V274H571.7z"/>
</g>
</svg>
