<?xml version="1.0" encoding="utf-8"?>
<!-- Generator: Adobe Illustrator 20.1.0, SVG Export Plug-In . SVG Version: 6.00 Build 0)  -->
<svg version="1.1" id="Warstwa_1" xmlns="http://www.w3.org/2000/svg" xmlns:xlink="http://www.w3.org/1999/xlink" x="0px" y="0px"
	 viewBox="0 0 665 290" style="enable-background:new 0 0 665 290;" xml:space="preserve">
<style type="text/css">
	.st0{fill:none;stroke:#2195F3;stroke-width:3;stroke-miterlimit:10;stroke-dasharray:17;}
	.st1{fill:none;stroke:#2195F3;stroke-width:3;stroke-miterlimit:10;}
	.st2{fill:#1A3F61;}
	.st3{fill:#2195F3;}
	.st4{fill:#184D7A;}
	.st5{opacity:0.5;enable-background:new    ;}
	.st6{fill:none;stroke:#2195F3;stroke-width:2;stroke-miterlimit:10;}
	.st7{fill:none;stroke:#2195F3;stroke-width:2;stroke-miterlimit:10;stroke-dasharray:7.8842,7.8842;}
	.st8{fill:none;stroke:#184D7A;stroke-width:3;stroke-miterlimit:10;}
</style>
<path class="st0" d="M664.6,20.4C497,20.4,497,181.8,332.4,181.8C168,181.8,168,20.4,0.2,20.4"/>
<line class="st1" x1="0.2" y1="101.1" x2="664.6" y2="101.1"/>
<rect x="0.2" y="236.8" class="st2" width="664.5" height="22.1"/>
<polygon class="st3" points="488.4,289.5 497,280.9 505.7,289.5 "/>
<polygon class="st3" points="158.6,289.5 167.2,280.9 176,289.5 "/>
<g>
	<path class="st4" d="M38,45.1c-11.9,0-21.5-9.7-21.5-21.5S26.2,2,38,2s21.5,9.7,21.5,21.5S49.9,45.1,38,45.1z"/>
	<path class="st3" d="M38,3.5c11.1,0,20,9,20,20s-9,20-20,20s-20-9-20-20S27,3.5,38,3.5 M38,0.5c-12.7,0-23,10.3-23,23
		s10.3,23,23,23s23-10.3,23-23S50.8,0.5,38,0.5L38,0.5z"/>
</g>
<g>
	<path class="st4" d="M38,122.6c-11.9,0-21.5-9.7-21.5-21.5c0-11.9,9.7-21.5,21.5-21.5s21.5,9.7,21.5,21.5
		C59.6,113,49.9,122.6,38,122.6z"/>
	<path class="st3" d="M38,81.1c11.1,0,20,9,20,20s-9,20-20,20s-20-9-20-20S27,81.1,38,81.1 M38,78.1c-12.7,0-23,10.3-23,23
		s10.3,23,23,23s23-10.3,23-23S50.8,78.1,38,78.1L38,78.1z"/>
</g>
<g>
	<path class="st3" d="M40.6,28.3h-5.1l-0.9,2.9h-4l5.7-15.5h3.5l5.7,15.5h-4L40.6,28.3z M36.4,25.5h3.3L38,20.1L36.4,25.5z"/>
</g>
<g>
	<path class="st3" d="M32.5,108.8V93.4h5.6c2,0,3.5,0.4,4.5,1.1s1.6,1.8,1.6,3.2c0,0.8-0.2,1.5-0.6,2.1c-0.4,0.6-0.9,1-1.6,1.3
		c0.8,0.2,1.4,0.6,1.9,1.2s0.6,1.3,0.6,2.1c0,1.5-0.5,2.7-1.4,3.4s-2.4,1.1-4.3,1.2h-6.3V108.8z M36.2,99.8h1.9
		c0.8,0,1.4-0.2,1.7-0.4s0.5-0.7,0.5-1.3c0-0.7-0.2-1.1-0.6-1.4s-1-0.4-1.8-0.4h-1.8L36.2,99.8L36.2,99.8z M36.2,102.3v3.7h2.4
		c0.7,0,1.2-0.2,1.6-0.5s0.5-0.7,0.5-1.3c0-1.3-0.6-1.9-1.9-1.9C38.8,102.3,36.2,102.3,36.2,102.3z"/>
</g>
<g class="st5">
	<g>
		<line class="st6" x1="498.2" y1="101.1" x2="498.2" y2="105.1"/>
		<line class="st7" x1="498.2" y1="113" x2="498.2" y2="251"/>
		<line class="st6" x1="498.2" y1="254.9" x2="498.2" y2="258.9"/>
	</g>
</g>
<g class="st5">
	<g>
		<line class="st6" x1="166.4" y1="101.1" x2="166.4" y2="105.1"/>
		<line class="st7" x1="166.4" y1="113" x2="166.4" y2="251"/>
		<line class="st6" x1="166.4" y1="254.9" x2="166.4" y2="258.9"/>
	</g>
</g>
<g>
	<circle class="st3" cx="166.4" cy="101.1" r="5.3"/>
	<circle class="st3" cx="166.4" cy="101.1" r="6.8"/>
</g>
<g>
	<circle class="st3" cx="498.2" cy="101.1" r="5.3"/>
	<circle class="st3" cx="498.2" cy="101.1" r="6.8"/>
</g>
</svg>
