<?xml version="1.0" encoding="UTF-8" standalone="no"?>
<svg
   xmlns:dc="http://purl.org/dc/elements/1.1/"
   xmlns:cc="http://creativecommons.org/ns#"
   xmlns:rdf="http://www.w3.org/1999/02/22-rdf-syntax-ns#"
   xmlns:svg="http://www.w3.org/2000/svg"
   xmlns="http://www.w3.org/2000/svg"
   xml:space="preserve"
   style="enable-background:new 0 0 665 320.3;"
   viewBox="0 0 665 320.3"
   y="0px"
   x="0px"
   id="Warstwa_1"
   version="1.1"><metadata
   id="metadata5298"><rdf:RDF><cc:Work
       rdf:about=""><dc:format>image/svg+xml</dc:format><dc:type
         rdf:resource="http://purl.org/dc/dcmitype/StillImage" /><dc:title></dc:title></cc:Work></rdf:RDF></metadata><defs
   id="defs5296" />
<style
   id="style5237"
   type="text/css">
	.st0{fill:none;}
	.st1{opacity:0.2;fill:#2196f3;enable-background:new    ;}
	.st2{fill:none;}
	.st3{fill:none;stroke:#2196f3;stroke-width:3;stroke-miterlimit:10;stroke-dasharray:17;}
	.st4{fill:none;stroke:#2196f3;stroke-width:3;stroke-miterlimit:10;}
	.st5{fill:#1A3F61;}
	.st6{opacity:0.24;fill:#2196f3;}
	.st7{fill:#184D7A;}
	.st8{fill:#2196f3;}
	.st9{opacity:0.5;}
	.st10{fill:none;stroke:#2196f3;stroke-width:2;stroke-miterlimit:10;stroke-dasharray:8;}
	.st11{fill:none;stroke:#2196f3;stroke-width:3;stroke-miterlimit:10;}
</style>
<rect
   style="opacity:0.23999999;fill:#2196f3;stroke:none;stroke-width:1.39167249;stroke-miterlimit:10"
   id="rect5239"
   height="156.2959"
   width="664.40002"
   class="st6"
   y="24.004097"
   x="0.30000001" />
<path
   style="fill:none;stroke:#2196f3;stroke-width:2.61027002;stroke-miterlimit:10;stroke-dasharray:14.79152962"
   id="path5241"
   d="M 664.6,92.899372 C 497,92.899372 497,237.8 332.4,237.8 168,237.8 168,92.899372 0.2,92.899372"
   class="st3" />
<line
   style="fill:none;stroke:#2196f3;stroke-width:3;stroke-miterlimit:10"
   id="line5243"
   y2="23.099998"
   x2="664.59998"
   y1="23.099998"
   x1="0.2"
   class="st4" />
<line
   id="line5245"
   y2="179.2"
   x2="664.6"
   y1="179.2"
   x1="0.2"
   class="st4" />

<path
   style="fill:#184d7a"
   id="path5249"
   d="M 38,121.1 C 26.1,121.1 16.5,111.4 16.5,99.6 16.5,87.8 26.2,78 38,78 c 11.8,0 21.5,9.7 21.5,21.5 0,11.8 -9.6,21.6 -21.5,21.6 z"
   class="st7" />
<path
   style="fill:#2196f3"
   id="path5251"
   d="m 38,79.5 c 11.1,0 20,9 20,20 0,11 -9,20 -20,20 -11,0 -20,-9 -20,-20 0,-11 9,-20 20,-20 m 0,-3 c -12.7,0 -23,10.3 -23,23 0,12.7 10.3,23 23,23 12.7,0 23,-10.3 23,-23 0,-12.7 -10.2,-23 -23,-23 z"
   class="st8" />
<path
   style="fill:#184d7a"
   id="path5253"
   d="M 38,44.6 C 26.1,44.6 16.5,34.9 16.5,23.1 16.5,11.2 26.2,1.6 38,1.6 49.8,1.6 59.5,11.3 59.5,23.1 59.6,35 49.9,44.6 38,44.6 Z"
   class="st7" />
<path
   style="fill:#2196f3;fill-opacity:1;stroke:none"
   id="path5255"
   d="m 38,3.1 c 11.1,0 20,9 20,20 0,11 -9,20 -20,20 -11,0 -20,-9 -20,-20 0,-11 9,-20 20,-20 m 0,-3 c -12.7,0 -23,10.3 -23,23 0,12.7 10.3,23 23,23 12.7,0 23,-10.3 23,-23 0,-12.7 -10.2,-23 -23,-23 z"
   class="st8" />
<path
   style="fill:#2196f3"
   id="path5257"
   d="m 40.6,27.9 h -5.1 l -0.9,2.9 h -4 l 5.7,-15.5 h 3.5 l 5.7,15.5 h -4 z m -4.2,-2.8 h 3.3 L 38,19.7 Z"
   class="st8" />
<path
   id="path5259"
   d="M38,200.7c-11.9,0-21.5-9.7-21.5-21.5c0-11.9,9.7-21.5,21.5-21.5s21.5,9.7,21.5,21.5  C59.6,191.1,49.9,200.7,38,200.7z"
   class="st7" />
<path
   id="path5261"
   d="M38,159.2c11.1,0,20,9,20,20s-9,20-20,20s-20-9-20-20S27,159.2,38,159.2 M38,156.2c-12.7,0-23,10.3-23,23  s10.3,23,23,23s23-10.3,23-23S50.8,156.2,38,156.2L38,156.2z"
   class="st8" />
<line
   id="line5263"
   y2="183.2"
   x2="434"
   y1="179.2"
   x1="434"
   class="st6" />
<line
   id="line5265"
   y2="270.7"
   x2="434"
   y1="191.5"
   x1="434"
   class="st7" />
<line
   id="line5267"
   y2="278.9"
   x2="434"
   y1="274.9"
   x1="434"
   class="st6" />

<path
   id="path5271"
   d="M32.5,186.9v-15.5h5.6c2,0,3.5,0.4,4.5,1.1c1,0.7,1.6,1.8,1.6,3.2c0,0.8-0.2,1.5-0.6,2.1  c-0.4,0.6-0.9,1-1.6,1.3c0.8,0.2,1.4,0.6,1.9,1.2s0.6,1.3,0.6,2.1c0,1.5-0.5,2.7-1.4,3.4s-2.4,1.1-4.3,1.2h-6.3V186.9z M36.2,177.9  h1.9c0.8,0,1.4-0.2,1.7-0.4s0.5-0.7,0.5-1.3c0-0.7-0.2-1.1-0.6-1.4s-1-0.4-1.8-0.4h-1.8L36.2,177.9L36.2,177.9z M36.2,180.3v3.7h2.4  c0.7,0,1.2-0.2,1.6-0.5s0.5-0.7,0.5-1.3c0-1.3-0.6-1.9-1.9-1.9H36.2z"
   class="st8" />

<rect
   style="fill:#1a3f61;stroke-width:0.99958771"
   id="rect5247"
   height="22.1"
   width="663.95203"
   class="st5"
   y="256.79999"
   x="0.40089923" /><g
   transform="translate(47.505872,-0.24082502)"
   id="g5291">
	<polygon
   style="fill:#2196f3"
   id="polygon5273"
   points="434,300.9 442.7,309.5 425.3,309.5 "
   class="st8" />
	<g
   transform="matrix(1,0,0,0.99300544,0,1.2534247)"
   style="opacity:0.5"
   id="g5283"
   class="st9">
		<g
   id="g5281">
			<line
   style="fill:none;stroke:#2196f3;stroke-width:2;stroke-miterlimit:10;stroke-dasharray:8"
   id="line5275"
   y2="183.7"
   x2="434"
   y1="179.2"
   x1="434"
   class="st10" />
			<line
   style="fill:none;stroke:#2196f3;stroke-width:2;stroke-miterlimit:10;stroke-dasharray:8"
   id="line5277"
   y2="270"
   x2="434"
   y1="192.60001"
   x1="434"
   class="st10" />
			<line
   style="fill:none;stroke:#2196f3;stroke-width:2;stroke-miterlimit:10;stroke-dasharray:8"
   id="line5279"
   y2="278.89999"
   x2="434"
   y1="274.39999"
   x1="434"
   class="st10" />
		</g>
	</g>
	<g
   id="g5289">
		<circle
   style="fill:#2196f3"
   id="circle5285"
   r="5.3000002"
   cy="179.2"
   cx="434"
   class="st8" />
		<circle
   style="fill:#2196f3"
   id="circle5287"
   r="6.8000002"
   cy="179.2"
   cx="434"
   class="st8" />
	</g>
</g>
<style
   type="text/css"
   id="style6746">
	.st0{fill:none;stroke:#555;stroke-width:3;stroke-miterlimit:10;stroke-dasharray:17;}
	.st1{fill:none;stroke:#555;stroke-width:3;stroke-miterlimit:10;}
	.st2{opacity:0.5;fill:none;stroke:#555;stroke-width:2;stroke-miterlimit:10;stroke-dasharray:8;enable-background:new    ;}
	.st4{fill:#555;}
	.st6{fill:none;stroke:#555;stroke-width:3;stroke-miterlimit:10;}
</style><g
   style="fill:#2196f3;fill-opacity:1;stroke:none"
   id="g6776-3"
   transform="translate(-0.03690166,76.232765)"><path
     style="fill:#2196f3;fill-opacity:1;stroke:none"
     class="st4"
     d="M 32.2,31.1 V 15.6 h 5 c 1.4,0 2.6,0.3 3.7,0.9 1.1,0.6 1.9,1.5 2.6,2.6 0.7,1.1 0.9,2.4 0.9,3.8 v 0.7 c 0,1.4 -0.3,2.7 -0.9,3.8 -0.6,1.1 -1.4,2 -2.5,2.6 -1.1,0.6 -2.3,1 -3.6,1 H 32.2 Z M 36,18.5 v 9.7 h 1.3 c 1.1,0 1.9,-0.4 2.5,-1.1 0.6,-0.8 0.9,-1.9 0.9,-3.4 V 23 c 0,-1.5 -0.3,-2.6 -0.9,-3.4 -0.6,-0.8 -1.4,-1.1 -2.5,-1.1 z"
     id="path6774-6" /></g><rect
   style="fill:#2196f3;fill-opacity:1;stroke-width:0.67017972"
   id="rect5247-0"
   height="22.1"
   width="298.45407"
   class="st5"
   y="256.87637"
   x="184.09248" /><g
   transform="translate(-248.78188,-0.24082502)"
   id="g5291-6"><polygon
     style="fill:#2196f3"
     id="polygon5273-1"
     points="425.3,309.5 434,300.9 442.7,309.5 "
     class="st8" /><g
     transform="matrix(1,0,0,0.98041524,0,3.5095892)"
     style="opacity:0.5"
     id="g5283-2"
     class="st9"><g
       id="g5281-93"><line
         style="fill:none;stroke:#2196f3;stroke-width:2;stroke-miterlimit:10;stroke-dasharray:8"
         id="line5275-1"
         y2="183.7"
         x2="434"
         y1="179.2"
         x1="434"
         class="st10" /><line
         style="fill:none;stroke:#2196f3;stroke-width:2;stroke-miterlimit:10;stroke-dasharray:8"
         id="line5277-9"
         y2="270"
         x2="434"
         y1="192.60001"
         x1="434"
         class="st10" /><line
         style="fill:none;stroke:#2196f3;stroke-width:2;stroke-miterlimit:10;stroke-dasharray:8"
         id="line5279-4"
         y2="278.89999"
         x2="434"
         y1="274.39999"
         x1="434"
         class="st10" /></g></g><g
     id="g5289-7"><circle
       style="fill:#2196f3"
       id="circle5285-8"
       r="5.3000002"
       cy="179.2"
       cx="434"
       class="st8" /><circle
       style="fill:#2196f3"
       id="circle5287-4"
       r="6.8000002"
       cy="179.2"
       cx="434"
       class="st8" /></g></g></svg>