<?xml version="1.0" encoding="UTF-8" standalone="no"?>
<svg
   xmlns:dc="http://purl.org/dc/elements/1.1/"
   xmlns:cc="http://creativecommons.org/ns#"
   xmlns:rdf="http://www.w3.org/1999/02/22-rdf-syntax-ns#"
   xmlns:svg="http://www.w3.org/2000/svg"
   xmlns="http://www.w3.org/2000/svg"
   xmlns:xlink="http://www.w3.org/1999/xlink"
   version="1.1"
   id="Warstwa_1"
   x="0px"
   y="0px"
   viewBox="0 0 665 320"
   style="enable-background:new 0 0 665 320;"
   xml:space="preserve"><metadata
   id="metadata4167"><rdf:RDF><cc:Work
       rdf:about=""><dc:format>image/svg+xml</dc:format><dc:type
         rdf:resource="http://purl.org/dc/dcmitype/StillImage" /><dc:title></dc:title></cc:Work></rdf:RDF></metadata><defs
   id="defs4165">
	

	

	
</defs>
<style
   type="text/css"
   id="style4092">
	.st0{fill:none;}
	.st1{opacity:0.2;fill:#2196f3;enable-background:new    ;}
	.st2{fill:none;}
	.st3{fill:none;stroke:#2196f3;stroke-width:3;stroke-miterlimit:10;stroke-dasharray:17;}
	.st4{fill:none;stroke:#2196f3;stroke-width:3;stroke-miterlimit:10;}
	.st5{fill:#1A3F61;}
	.st6{opacity:0.24;fill:#2196f3;}
	.st7{fill:#184D7A;}
	.st8{fill:#2196f3;}
	.st9{opacity:0.5;}
	.st10{fill:none;stroke:#2196f3;stroke-width:2;stroke-miterlimit:10;stroke-dasharray:8;}
	.st11{fill:none;stroke:#2196f3;stroke-width:3;stroke-miterlimit:10;}
</style>
<pattern
   y="320"
   width="665"
   height="320"
   patternUnits="userSpaceOnUse"
   id="SVGID_1_"
   viewBox="0 -320 665 320"
   style="overflow:visible;">
	<g
   id="g4096">
		<rect
   y="-320"
   class="st0"
   width="665"
   height="320"
   id="rect4094" />
	</g>
</pattern>
<rect
   x="0.2"
   y="256.8"
   class="st5"
   width="664.5"
   height="22.1"
   id="rect4107"
   style="stroke:none" />
<path
   class="st3"
   d="M 664.6,20.034736 C 497,20.034736 497,164.82707 332.4,164.82707 168,164.82707 168,20.034736 0.2,20.034736"
   id="path4101"
   style="fill:none;stroke:#2196f3;stroke-width:2.60929441;stroke-miterlimit:10;stroke-dasharray:14.78600151" />
<line
   class="st4"
   x1="0.2"
   y1="101.1"
   x2="664.6"
   y2="101.1"
   id="line4103" />
<line
   class="st4"
   x1="0.2"
   y1="179.2"
   x2="664.6"
   y2="179.2"
   id="line4105" />

<pattern
   id="SVGID_2_"
   xlink:href="#SVGID_1_"
   patternTransform="matrix(1 0 0 1 -327.1 16942.5078)">
</pattern>
<rect
   x="0.2"
   y="99.599998"
   class="st6"
   width="664.40002"
   height="80.699997"
   id="rect4110"
   style="display:inline;opacity:0.23999999;fill:#2196f3;stroke:none" />
<g
   id="g4116">
	<path
   style="fill:#184d7a"
   class="st7"
   d="M 38,45.1 C 26.1,45.1 16.5,35.4 16.5,23.6 16.5,11.8 26.2,2 38,2 49.8,2 59.5,11.7 59.5,23.5 59.5,35.3 49.9,45.1 38,45.1 Z"
   id="path4112" />
	<path
   style="fill:#2196f3"
   class="st8"
   d="m 38,3.5 c 11.1,0 20,9 20,20 0,11 -9,20 -20,20 -11,0 -20,-9 -20,-20 0,-11 9,-20 20,-20 m 0,-3 c -12.7,0 -23,10.3 -23,23 0,12.7 10.3,23 23,23 12.7,0 23,-10.3 23,-23 0,-12.7 -10.2,-23 -23,-23 z"
   id="path4114" /><path
   style="fill:#2196f3"
   class="st8"
   d="m 44.5,26 c 0,1.1 -0.3,2 -0.9,2.9 -0.5,0.8 -1.3,1.5 -2.2,1.9 -1,0.5 -2.1,0.7 -3.3,0.7 -2,0 -3.6,-0.7 -4.8,-2 -1.2,-1.3 -1.8,-3.2 -1.8,-5.6 v -0.8 c 0,-1.5 0.3,-2.8 0.8,-4 0.5,-1.1 1.3,-2 2.3,-2.6 1,-0.6 2.1,-0.9 3.4,-0.9 1.9,0 3.4,0.5 4.5,1.5 1.1,1 1.8,2.4 1.9,4.1 h -3.7 c 0,-0.9 -0.3,-1.6 -0.7,-2 -0.4,-0.4 -1.1,-0.6 -2,-0.6 -0.9,0 -1.6,0.3 -2,1 -0.4,0.7 -0.7,1.8 -0.7,3.3 V 24 c 0,1.7 0.2,2.8 0.6,3.5 0.4,0.7 1.1,1.1 2.1,1.1 0.9,0 1.5,-0.2 2,-0.6 0.5,-0.4 0.7,-1 0.7,-1.9 L 44.5,26 c 0,0.1 0,0 0,0 z"
   id="path4134" />
</g>
<g
   id="g4122">
	<path
   style="fill:#184d7a"
   class="st7"
   d="m 38,122.6 c -11.9,0 -21.5,-9.7 -21.5,-21.5 0,-11.9 9.7,-21.5 21.5,-21.5 11.8,0 21.5,9.7 21.5,21.5 0.1,11.9 -9.6,21.5 -21.5,21.5 z"
   id="path4118" />
	<path
   style="fill:#2196f3"
   class="st8"
   d="m 38,81.1 c 11.1,0 20,9 20,20 0,11 -9,20 -20,20 -11,0 -20,-9 -20,-20 0,-11 9,-20 20,-20 m 0,-3 c -12.7,0 -23,10.3 -23,23 0,12.7 10.3,23 23,23 12.7,0 23,-10.3 23,-23 0,-12.7 -10.2,-23 -23,-23 z"
   id="path4120" /><path
   style="fill:#2196f3"
   class="st8"
   d="m 40.6,105.9 h -5.1 l -0.9,2.9 h -4 l 5.7,-15.5 h 3.5 l 5.7,15.5 h -4 z m -4.2,-2.7 h 3.3 L 38,97.8 Z"
   id="path4124" />
</g>

<g
   id="g4132">
	<path
   style="fill:#184d7a"
   class="st7"
   d="m 38,200.7 c -11.9,0 -21.5,-9.7 -21.5,-21.5 0,-11.9 9.7,-21.5 21.5,-21.5 11.8,0 21.5,9.7 21.5,21.5 0.1,11.9 -9.6,21.5 -21.5,21.5 z"
   id="path4128" />
	<path
   style="fill:#2196f3"
   class="st8"
   d="m 38,159.2 c 11.1,0 20,9 20,20 0,11 -9,20 -20,20 -11,0 -20,-9 -20,-20 0,-11 9,-20 20,-20 m 0,-3 c -12.7,0 -23,10.3 -23,23 0,12.7 10.3,23 23,23 12.7,0 23,-10.3 23,-23 0,-12.7 -10.2,-23 -23,-23 z"
   id="path4130" /><path
   style="fill:#2196f3"
   class="st8"
   d="m 32.5,186.8 v -15.4 h 5.6 c 2,0 3.5,0.4 4.5,1.1 1,0.7 1.6,1.8 1.6,3.2 0,0.8 -0.2,1.5 -0.6,2.1 -0.4,0.6 -0.9,1 -1.6,1.3 0.8,0.2 1.4,0.6 1.9,1.2 0.5,0.6 0.6,1.3 0.6,2.1 0,1.5 -0.5,2.7 -1.4,3.4 -0.9,0.7 -2.4,1.1 -4.3,1.2 h -6.3 z m 3.7,-9 h 1.9 c 0.8,0 1.4,-0.2 1.7,-0.4 0.3,-0.2 0.5,-0.7 0.5,-1.3 0,-0.7 -0.2,-1.1 -0.6,-1.4 -0.4,-0.3 -1,-0.4 -1.8,-0.4 h -1.8 z m 0,2.5 v 3.7 h 2.4 c 0.7,0 1.2,-0.2 1.6,-0.5 0.4,-0.3 0.5,-0.7 0.5,-1.3 0,-1.3 -0.6,-1.9 -1.9,-1.9 z"
   id="path4138" />
</g>
<g
   transform="translate(332.71347)"
   id="g4160-3"><polygon
     class="st8"
     points="162.4,309.5 145.1,309.5 153.7,300.9 "
     id="polygon4142-6"
     style="fill:#2196f3" /><g
     class="st9"
     id="g4152-7"
     style="opacity:0.5"><g
       id="g4150-5"><line
         class="st10"
         x1="153.8"
         y1="101.1"
         x2="153.8"
         y2="105.6"
         id="line4144-3"
         style="fill:none;stroke:#2196f3;stroke-width:2;stroke-miterlimit:10;stroke-dasharray:8" /><line
         class="st10"
         x1="153.8"
         y1="114.5"
         x2="153.8"
         y2="270"
         id="line4146-5"
         style="fill:none;stroke:#2196f3;stroke-width:2;stroke-miterlimit:10;stroke-dasharray:8" /><line
         class="st10"
         x1="153.8"
         y1="274.39999"
         x2="153.8"
         y2="278.89999"
         id="line4148-6"
         style="fill:none;stroke:#2196f3;stroke-width:2;stroke-miterlimit:10;stroke-dasharray:8" /></g></g><g
     id="g4158-2"><circle
       class="st8"
       cx="153.8"
       cy="101.1"
       r="5.3000002"
       id="circle4154-9"
       style="fill:#2196f3" /><circle
       class="st8"
       cx="153.8"
       cy="101.1"
       r="6.8000002"
       id="circle4156-1"
       style="fill:#2196f3" /></g></g>

<g
   id="g4160"
   transform="translate(22)">
	<polygon
   class="st8"
   points="153.7,300.9 162.4,309.5 145.1,309.5 "
   id="polygon4142"
   style="fill:#2196f3" />
	<g
   class="st9"
   id="g4152"
   style="opacity:0.5">
		<g
   id="g4150">
			<line
   class="st10"
   x1="153.8"
   y1="101.1"
   x2="153.8"
   y2="105.6"
   id="line4144"
   style="fill:none;stroke:#2196f3;stroke-width:2;stroke-miterlimit:10;stroke-dasharray:8" />
			<line
   class="st10"
   x1="153.8"
   y1="114.5"
   x2="153.8"
   y2="270"
   id="line4146"
   style="fill:none;stroke:#2196f3;stroke-width:2;stroke-miterlimit:10;stroke-dasharray:8" />
			<line
   class="st10"
   x1="153.8"
   y1="274.39999"
   x2="153.8"
   y2="278.89999"
   id="line4148"
   style="fill:none;stroke:#2196f3;stroke-width:2;stroke-miterlimit:10;stroke-dasharray:8" />
		</g>
	</g>
	<g
   id="g4158">
		<circle
   class="st8"
   cx="153.8"
   cy="101.1"
   r="5.3000002"
   id="circle4154"
   style="fill:#2196f3" />
		<circle
   class="st8"
   cx="153.8"
   cy="101.1"
   r="6.8000002"
   id="circle4156"
   style="fill:#2196f3" />
	</g>
</g>
<rect
   x="0.2"
   y="256.79999"
   class="st4"
   width="176.58621"
   height="22.1"
   id="rect3932"
   style="opacity:1;vector-effect:none;fill:#2196f3;fill-opacity:1;stroke:none;stroke-width:3.08397913;stroke-linecap:butt;stroke-linejoin:miter;stroke-miterlimit:10;stroke-dasharray:none;stroke-dashoffset:0;stroke-opacity:1" /><rect
   x="485.58066"
   y="256.79999"
   class="st4"
   width="179.11935"
   height="22.1"
   id="rect3932-7"
   style="opacity:1;vector-effect:none;fill:#2196f3;fill-opacity:1;stroke:none;stroke-width:3.10602045;stroke-linecap:butt;stroke-linejoin:miter;stroke-miterlimit:10;stroke-dasharray:none;stroke-dashoffset:0;stroke-opacity:1" /></svg>