<?xml version="1.0" encoding="utf-8"?>
<!-- Generator: Adobe Illustrator 20.1.0, SVG Export Plug-In . SVG Version: 6.00 Build 0)  -->
<svg version="1.1" id="Warstwa_1" xmlns="http://www.w3.org/2000/svg" xmlns:xlink="http://www.w3.org/1999/xlink" x="0px" y="0px"
	 viewBox="0 0 664.5 218.8" style="enable-background:new 0 0 664.5 218.8;" xml:space="preserve">
<style type="text/css">
	.st0{display:none;fill:#194D7A;}
	.st1{fill:#1A3F61;}
	.st2{fill:#184D7A;}
	.st3{fill:#2195F3;}
	.st4{fill:#2195F3;stroke:#184D7A;stroke-width:5;stroke-miterlimit:10;}
	.st5{fill:#194D7A;}
</style>
<rect x="-92.5" y="-155.2" class="st0" width="841.3" height="522"/>
<rect y="14.8" class="st1" width="664.5" height="22.1"/>
<path class="st2" d="M37.8,47.3c-11.9,0-21.5-9.7-21.5-21.5c0-11.9,9.7-21.5,21.5-21.5S59.3,14,59.3,25.8
	C59.4,37.8,49.7,47.3,37.8,47.3z"/>
<path class="st3" d="M37.8,5.8c11.1,0,20,9,20,20s-9,20-20,20s-20-9-20-20S26.8,5.8,37.8,5.8 M37.8,2.8c-12.7,0-23,10.3-23,23
	s10.3,23,23,23s23-10.3,23-23S50.6,2.8,37.8,2.8L37.8,2.8z"/>
<path class="st3" d="M37.8,23.3l2.5-5.1h4.3l-4.3,7.7l4.4,7.8h-4.3l-2.6-5.2l-2.6,5.2h-4.3l4.4-7.8L31,18.1h4.2L37.8,23.3z"/>
<path class="st4" d="M315.5,48.5c-12.5,0-22.7-10.2-22.7-22.7c0-12.5,10.2-22.7,22.7-22.7s22.7,10.2,22.7,22.7
	C338.3,38.4,328.1,48.5,315.5,48.5z"/>
<polygon class="st5" points="307.8,30.3 315.5,18.3 323.3,30.3 "/>
<path class="st4" d="M444.7,48.5c-12.5,0-22.6-10.2-22.6-22.6c0-12.5,10.2-22.6,22.6-22.6s22.6,10.2,22.6,22.6
	C467.5,38.4,457.3,48.5,444.7,48.5z"/>
<polygon class="st5" points="452.5,21.5 444.7,33.5 436.9,21.5 "/>
<path class="st4" d="M186.4,48.6c-12.6,0-22.7-10.3-22.7-22.7c0-12.6,10.3-22.7,22.7-22.7c12.5,0,22.7,10.3,22.7,22.7
	C209.2,38.4,199,48.6,186.4,48.6z"/>
<polygon class="st5" points="178.6,30.3 186.4,18.3 194.2,30.3 "/>
<path class="st4" d="M573.9,48.5c-12.6,0-22.7-10.2-22.7-22.7c0-12.6,10.2-22.7,22.7-22.7c12.4,0,22.7,10.2,22.7,22.7
	C596.7,38.4,586.4,48.5,573.9,48.5z"/>
<polygon class="st5" points="566.1,30.3 573.9,18.3 581.7,30.3 "/>
<rect y="98.5" class="st1" width="664.5" height="22.1"/>
<path class="st2" d="M37.8,131.1c-11.9,0-21.5-9.7-21.5-21.5c0-11.9,9.7-21.5,21.5-21.5s21.5,9.7,21.5,21.5
	C59.4,121.5,49.7,131.1,37.8,131.1z"/>
<path class="st3" d="M37.8,89.6c11.1,0,20,9,20,20s-9,20-20,20s-20-9-20-20S26.8,89.6,37.8,89.6 M37.8,86.6c-12.7,0-23,10.3-23,23
	s10.3,23,23,23s23-10.3,23-23S50.6,86.6,37.8,86.6L37.8,86.6z"/>
<path class="st3" d="M37.8,108.6l2.8-6.7h4l-5,9.9v5.5h-3.8v-5.5l-5-9.9h4L37.8,108.6z"/>
<path class="st4" d="M315.5,132.1c-12.5,0-22.5-10.2-22.5-22.5c0-12.5,10.2-22.5,22.5-22.5s22.5,10.2,22.5,22.5
	C338.2,122.1,328,132.1,315.5,132.1z"/>
<polygon class="st5" points="323.3,105.2 315.5,117.2 307.8,105.2 "/>
<path class="st4" d="M444.7,132.2c-12.5,0-22.6-10.2-22.6-22.6c0-12.5,10.2-22.6,22.6-22.6s22.6,10.2,22.6,22.6
	C467.5,122.1,457.3,132.2,444.7,132.2z"/>
<polygon class="st5" points="452.5,105.2 444.7,117.2 436.9,105.2 "/>
<path class="st4" d="M186.4,132.3c-12.6,0-22.7-10.3-22.7-22.7c0-12.6,10.3-22.7,22.7-22.7c12.5,0,22.7,10.3,22.7,22.7
	C209.2,122.2,199,132.3,186.4,132.3z"/>
<path class="st4" d="M573.9,132.3c-12.6,0-22.7-10.2-22.7-22.7c0-12.6,10.2-22.7,22.7-22.7s22.7,10.2,22.7,22.7
	C596.7,122.2,586.4,132.3,573.9,132.3z"/>
<path class="st5" d="M573.9,106.9l2.1-3.3h4.8l-3.9,5.9l4.1,6.2h-4.8l-2.3-3.6l-2.3,3.6h-4.8l4.1-6.2l-3.9-5.9h4.8L573.9,106.9z"/>
<rect y="182.3" class="st1" width="664.5" height="22.1"/>
<path class="st4" d="M315.5,216c-12.5,0-22.7-10.2-22.7-22.7c0-12.5,10.2-22.7,22.7-22.7s22.7,10.2,22.7,22.7
	C338.3,205.9,328.1,216,315.5,216z"/>
<path class="st4" d="M444.7,216c-12.5,0-22.7-10.2-22.7-22.7c0-12.5,10.2-22.7,22.7-22.7c12.4,0,22.7,10.2,22.7,22.7
	C467.5,205.9,457.3,216,444.7,216z"/>
<polygon class="st5" points="452.5,188.9 444.7,200.9 436.9,188.9 "/>
<path class="st4" d="M186.4,216c-12.5,0-22.7-10.2-22.7-22.7c0-12.5,10.2-22.7,22.7-22.7c12.4,0,22.7,10.2,22.7,22.7
	C209.1,205.9,198.9,216,186.4,216z"/>
<polygon class="st5" points="178.6,197.8 186.4,185.8 194.2,197.8 "/>
<path class="st4" d="M573.9,216c-12.6,0-22.7-10.2-22.7-22.7c0-12.6,10.2-22.7,22.7-22.7s22.7,10.2,22.7,22.7
	C596.7,205.9,586.4,216,573.9,216z"/>
<path class="st5" d="M573.9,190.6l2.1-3.3h4.8l-3.9,5.9l4.1,6.2h-4.8l-2.3-3.6l-2.3,3.6h-4.8l4.1-6.2l-3.9-5.9h4.8L573.9,190.6z"/>
<g>
	<path class="st3" d="M317.6,145.3v0.2v5.2h4.5l-6.6,7.2l-6.6-7.2h4.5v-5.2v-0.2H317.6z"/>
</g>
<g>
	<path class="st3" d="M188.5,145.3v0.2v5.2h4.5l-6.6,7.2l-6.6-7.2h4.5v-5.2v-0.2H188.5z"/>
</g>
<g>
	<path class="st3" d="M446.8,145.3v0.2v5.2h4.5l-6.6,7.2l-6.6-7.2h4.5v-5.2v-0.2H446.8z"/>
</g>
<g>
	<path class="st3" d="M576,145.3v0.2v5.2h4.5l-6.6,7.2l-6.6-7.2h4.5v-5.2v-0.2H576z"/>
</g>
<g>
	<path class="st3" d="M188.5,66.1h4.5V70h-4.5v5.2h-4.2V70h-4.5v-3.8h4.5v-5.1h4.2V66.1z"/>
</g>
<g>
	<path class="st3" d="M317.7,66.1h4.5V70h-4.5v5.2h-4.2V70h-4.5v-3.8h4.5v-5.1h4.2V66.1z"/>
</g>
<g>
	<path class="st3" d="M446.8,66.1h4.5V70h-4.5v5.2h-4.2V70h-4.5v-3.8h4.5v-5.1h4.2V66.1z"/>
</g>
<g>
	<path class="st3" d="M576,66.1h4.5V70H576v5.2h-4.2V70h-4.5v-3.8h4.5v-5.1h4.2V66.1z"/>
</g>
</svg>
