<?xml version="1.0" encoding="utf-8"?>
<!-- Generator: Adobe Illustrator 20.1.0, SVG Export Plug-In . SVG Version: 6.00 Build 0)  -->
<svg version="1.1" id="Warstwa_1" xmlns="http://www.w3.org/2000/svg" xmlns:xlink="http://www.w3.org/1999/xlink" x="0px" y="0px"
	 viewBox="0 0 665 320" style="enable-background:new 0 0 665 320;" xml:space="preserve">
<style type="text/css">
	.st0{fill:none;}
	.st1{opacity:0.2;fill:#2196f3;enable-background:new    ;}
	.st2{fill:none;}
	.st3{fill:none;stroke:#2196f3;stroke-width:3;stroke-miterlimit:10;stroke-dasharray:17;}
	.st4{fill:none;stroke:#2196f3;stroke-width:3;stroke-miterlimit:10;}
	.st5{fill:#1A3F61;}
	.st6{opacity:0.24;fill:#2196f3;}
	.st7{fill:#184D7A;}
	.st8{fill:#2196f3;}
	.st9{opacity:0.5;}
	.st10{fill:none;stroke:#2196f3;stroke-width:2;stroke-miterlimit:10;stroke-dasharray:8;}
	.st11{fill:none;stroke:#2196f3;stroke-width:3;stroke-miterlimit:10;}
</style>
<pattern  y="320" width="665" height="320" patternUnits="userSpaceOnUse" id="SVGID_1_" viewBox="0 -320 665 320" style="overflow:visible;">
	<g>
		<rect y="-320" class="st0" width="665" height="320"/>
	</g>
</pattern>
<rect x="-128" y="-244.6" class="st2" width="1000" height="801.5"/>
<path class="st3" d="M664.6,20.4C497,20.4,497,211.8,332.4,211.8C168,211.8,168,20.4,0.2,20.4"/>
<line class="st4" x1="0.2" y1="101.1" x2="664.6" y2="101.1"/>
<line class="st4" x1="0.2" y1="179.2" x2="664.6" y2="179.2"/>
<rect x="0.2" y="256.8" class="st5" width="664.5" height="22.1"/>
<pattern  id="SVGID_2_" xlink:href="#SVGID_1_" patternTransform="matrix(1 0 0 1 -327.1 16942.5078)">
</pattern>
<rect x="0.2" y="99.6" class="st6" width="664.4" height="80.7"/>
<g>
	<path class="st7" d="M38,45.1c-11.9,0-21.5-9.7-21.5-21.5S26.2,2,38,2s21.5,9.7,21.5,21.5S49.9,45.1,38,45.1z"/>
	<path class="st8" d="M38,3.5c11.1,0,20,9,20,20s-9,20-20,20s-20-9-20-20S27,3.5,38,3.5 M38,0.5c-12.7,0-23,10.3-23,23
		s10.3,23,23,23s23-10.3,23-23S50.8,0.5,38,0.5L38,0.5z"/>
</g>
<g>
	<path class="st7" d="M38,122.6c-11.9,0-21.5-9.7-21.5-21.5c0-11.9,9.7-21.5,21.5-21.5s21.5,9.7,21.5,21.5
		C59.6,113,49.9,122.6,38,122.6z"/>
	<path class="st8" d="M38,81.1c11.1,0,20,9,20,20s-9,20-20,20s-20-9-20-20S27,81.1,38,81.1 M38,78.1c-12.7,0-23,10.3-23,23
		s10.3,23,23,23s23-10.3,23-23S50.8,78.1,38,78.1L38,78.1z"/>
</g>
<g>
	<path class="st8" d="M40.6,105.9h-5.1l-0.9,2.9h-4l5.7-15.5h3.5l5.7,15.5h-4L40.6,105.9z M36.4,103.2h3.3L38,97.8L36.4,103.2z"/>
</g>
<g>
	<path class="st7" d="M38,200.7c-11.9,0-21.5-9.7-21.5-21.5c0-11.9,9.7-21.5,21.5-21.5s21.5,9.7,21.5,21.5
		C59.6,191.1,49.9,200.7,38,200.7z"/>
	<path class="st8" d="M38,159.2c11.1,0,20,9,20,20s-9,20-20,20s-20-9-20-20S27,159.2,38,159.2 M38,156.2c-12.7,0-23,10.3-23,23
		s10.3,23,23,23s23-10.3,23-23S50.8,156.2,38,156.2L38,156.2z"/>
</g>
<g>
	<path class="st8" d="M44.5,26c0,1.1-0.3,2-0.9,2.9c-0.5,0.8-1.3,1.5-2.2,1.9c-1,0.5-2.1,0.7-3.3,0.7c-2,0-3.6-0.7-4.8-2
		s-1.8-3.2-1.8-5.6v-0.8c0-1.5,0.3-2.8,0.8-4c0.5-1.1,1.3-2,2.3-2.6s2.1-0.9,3.4-0.9c1.9,0,3.4,0.5,4.5,1.5s1.8,2.4,1.9,4.1h-3.7
		c0-0.9-0.3-1.6-0.7-2s-1.1-0.6-2-0.6s-1.6,0.3-2,1s-0.7,1.8-0.7,3.3V24c0,1.7,0.2,2.8,0.6,3.5c0.4,0.7,1.1,1.1,2.1,1.1
		c0.9,0,1.5-0.2,2-0.6s0.7-1,0.7-1.9L44.5,26C44.5,26.1,44.5,26,44.5,26z"/>
</g>
<g>
	<path class="st8" d="M32.5,186.8v-15.4h5.6c2,0,3.5,0.4,4.5,1.1s1.6,1.8,1.6,3.2c0,0.8-0.2,1.5-0.6,2.1c-0.4,0.6-0.9,1-1.6,1.3
		c0.8,0.2,1.4,0.6,1.9,1.2c0.5,0.6,0.6,1.3,0.6,2.1c0,1.5-0.5,2.7-1.4,3.4s-2.4,1.1-4.3,1.2h-6.3V186.8z M36.2,177.8h1.9
		c0.8,0,1.4-0.2,1.7-0.4s0.5-0.7,0.5-1.3c0-0.7-0.2-1.1-0.6-1.4s-1-0.4-1.8-0.4h-1.8L36.2,177.8L36.2,177.8z M36.2,180.3v3.7h2.4
		c0.7,0,1.2-0.2,1.6-0.5s0.5-0.7,0.5-1.3c0-1.3-0.6-1.9-1.9-1.9H36.2z"/>
</g>
<g>
	<polygon class="st8" points="145.1,309.5 153.7,300.9 162.4,309.5 	"/>
	<g class="st9">
		<g>
			<line class="st10" x1="153.8" y1="101.1" x2="153.8" y2="105.6"/>
			<line class="st10" x1="153.8" y1="114.5" x2="153.8" y2="270"/>
			<line class="st10" x1="153.8" y1="274.4" x2="153.8" y2="278.9"/>
		</g>
	</g>
	<g>
		<circle class="st8" cx="153.8" cy="101.1" r="5.3"/>
		<circle class="st8" cx="153.8" cy="101.1" r="6.8"/>
	</g>
</g>
</svg>
