<?xml version="1.0" encoding="utf-8"?>
<!-- Generator: Adobe Illustrator 20.1.0, SVG Export Plug-In . SVG Version: 6.00 Build 0)  -->
<svg version="1.1" id="Warstwa_1" xmlns="http://www.w3.org/2000/svg" xmlns:xlink="http://www.w3.org/1999/xlink" x="0px" y="0px"
	 viewBox="0 0 664.5 258.9" style="enable-background:new 0 0 664.5 258.9;" xml:space="preserve">
<style type="text/css">
	.st0{display:none;fill:#194D7A;}
	.st1{fill:#1A3F61;}
	.st2{fill:#184D7A;}
	.st3{fill:#2195F3;}
	.st4{fill:#2195F3;stroke:#184D7A;stroke-width:5;stroke-miterlimit:10;}
	.st5{fill:#194D7A;}
	.st6{fill:none;stroke:#2195F3;stroke-width:5;stroke-miterlimit:10;}
	.st7{opacity:0.5;fill:none;stroke:#2195F3;stroke-width:2;stroke-miterlimit:10;stroke-dasharray:8;enable-background:new    ;}
</style>
<rect x="-92.5" y="-155.9" class="st0" width="841.3" height="522"/>
<rect x="0" y="14.2" class="st1" width="664.5" height="22.1"/>
<path class="st2" d="M37.8,46.7c-11.9,0-21.5-9.7-21.5-21.5c0-11.9,9.7-21.5,21.5-21.5s21.5,9.7,21.5,21.5
	C59.4,37.1,49.7,46.7,37.8,46.7z"/>
<path class="st3" d="M37.8,5.2c11.1,0,20,9,20,20s-9,20-20,20s-20-9-20-20S26.8,5.2,37.8,5.2 M37.8,2.2c-12.7,0-23,10.3-23,23
	s10.3,23,23,23s23-10.3,23-23S50.6,2.2,37.8,2.2L37.8,2.2z"/>
<path class="st3" d="M37.8,22.6l2.5-5.1h4.3l-4.3,7.7l4.4,7.8h-4.3l-2.6-5.2l-2.6,5.2h-4.3l4.4-7.8L31,17.5h4.2L37.8,22.6z"/>
<rect x="0" y="97.9" class="st1" width="664.5" height="22.1"/>
<g>
	<path class="st4" d="M363.8,47.9c-12.5,0-22.7-10.2-22.7-22.7c0-12.5,10.2-22.7,22.7-22.7c12.4,0,22.7,10.2,22.7,22.7
		C386.5,37.8,376.3,47.9,363.8,47.9z"/>
	<polygon class="st5" points="356,29.7 363.8,17.7 371.6,29.7 	"/>
	<path class="st4" d="M424.6,47.9c-12.5,0-22.7-10.2-22.7-22.7c0-12.5,10.2-22.7,22.7-22.7c12.4,0,22.7,10.2,22.7,22.7
		C447.3,37.8,437.1,47.9,424.6,47.9z"/>
	<polygon class="st5" points="416.8,29.7 424.6,17.7 432.4,29.7 	"/>
	<g>
		<path class="st3" d="M396.3,60.7v0.2v5.2h4.5l-6.6,7.2l-6.6-7.2h4.5v-5.2v-0.2H396.3z"/>
	</g>
	<path class="st4" d="M394.2,131.6c-12.5,0-22.7-10.2-22.7-22.7c0-12.5,10.2-22.7,22.7-22.7c12.4,0,22.7,10.2,22.7,22.7
		C416.9,121.5,406.7,131.6,394.2,131.6z"/>
	<polygon class="st5" points="386.4,113.4 394.2,101.4 402,113.4 	"/>
</g>
<g>
	<path class="st4" d="M184.3,48c-12.6,0-22.7-10.3-22.7-22.7c0-12.6,10.3-22.7,22.7-22.7c12.5,0,22.7,10.3,22.7,22.7
		C207.2,37.8,196.9,48,184.3,48z"/>
	<polygon class="st5" points="192.1,20.8 184.3,32.8 176.6,20.8 	"/>
	<path class="st4" d="M244.2,48c-12.6,0-22.7-10.3-22.7-22.7c0-12.6,10.3-22.7,22.7-22.7S267,12.7,267,25.2
		C267.1,37.8,256.8,48,244.2,48z"/>
	<polygon class="st5" points="252,20.8 244.2,32.8 236.4,20.8 	"/>
	<g>
		<path class="st3" d="M215.8,60.7v0.2v5.2h4.5l-6.6,7.2l-6.6-7.2h4.5v-5.2v-0.2H215.8z"/>
	</g>
	<path class="st4" d="M213.7,131.5c-12.5,0-22.5-10.2-22.5-22.5c0-12.5,10.2-22.5,22.5-22.5s22.5,10.2,22.5,22.5
		C236.4,121.4,226.2,131.5,213.7,131.5z"/>
	<polygon class="st5" points="221.5,104.6 213.7,116.5 206,104.6 	"/>
</g>
<g>
	<path class="st3" d="M650.9,253h-6.2v-2.7h6.2V253z"/>
	<path class="st3" d="M661.3,258.2h-3.5V247l-3.4,1v-2.7l6.6-2.3h0.3V258.2z"/>
</g>
<g>
	<path class="st3" d="M663.9,219.5c0,2-0.5,3.6-1.4,4.7c-0.9,1.1-2.2,1.7-3.9,1.7c-1.7,0-3-0.6-3.9-1.7c-0.9-1.1-1.4-2.7-1.4-4.7
		v-2.8c0-2,0.5-3.6,1.4-4.7s2.2-1.7,3.9-1.7s3,0.6,3.9,1.7c0.9,1.1,1.4,2.7,1.4,4.7V219.5z M660.4,216.3c0-1.1-0.1-1.9-0.4-2.4
		s-0.7-0.8-1.3-0.8c-0.6,0-1,0.2-1.3,0.7s-0.4,1.2-0.4,2.3v3.9c0,1.1,0.1,1.9,0.4,2.5c0.3,0.5,0.7,0.8,1.3,0.8c0.6,0,1-0.3,1.3-0.8
		c0.3-0.5,0.4-1.3,0.4-2.4V216.3z"/>
</g>
<g>
	<path class="st3" d="M659.7,193.2h-3.5V182l-3.4,1v-2.7l6.6-2.3h0.3V193.2z"/>
</g>
<polyline class="st6" points="628.8,218.1 544.1,218.1 544.1,185.6 394.2,185.6 394.2,250.6 213.7,250.6 213.7,218.1 0,218.1 "/>
<line class="st7" x1="628.8" y1="185.6" x2="0" y2="185.6"/>
<line class="st7" x1="628.8" y1="218.1" x2="0" y2="218.1"/>
<line class="st7" x1="628.8" y1="250.6" x2="0" y2="250.6"/>
<g>
	<path class="st4" d="M544.1,47.9c-12.6,0-22.7-10.2-22.7-22.7c0-12.6,10.2-22.7,22.7-22.7c12.4,0,22.7,10.2,22.7,22.7
		C566.9,37.8,556.6,47.9,544.1,47.9z"/>
	<path class="st4" d="M544.1,131.7c-12.6,0-22.7-10.2-22.7-22.7c0-12.6,10.2-22.7,22.7-22.7s22.7,10.2,22.7,22.7
		C566.9,121.5,556.6,131.7,544.1,131.7z"/>
	<g>
		<path class="st3" d="M546.2,60.7v0.2v5.2h4.5l-6.6,7.2l-6.6-7.2h4.5v-5.2v-0.2H546.2z"/>
	</g>
	<path class="st5" d="M544.1,106.2l2.1-3.3h4.8l-3.9,5.9l4.1,6.2h-4.8l-2.3-3.6l-2.3,3.6H537l4.1-6.2l-3.9-5.9h4.8L544.1,106.2z"/>
	<path class="st5" d="M544.1,22.5l2.1-3.3h4.8l-3.9,5.9l4.1,6.2h-4.8l-2.3-3.6l-2.3,3.6H537l4.1-6.2l-3.9-5.9h4.8L544.1,22.5z"/>
</g>
</svg>
