<?xml version="1.0" encoding="utf-8"?>
<!-- Generator: Adobe Illustrator 20.1.0, SVG Export Plug-In . SVG Version: 6.00 Build 0)  -->
<svg version="1.1" id="Warstwa_1" xmlns="http://www.w3.org/2000/svg" xmlns:xlink="http://www.w3.org/1999/xlink" x="0px" y="0px"
	 viewBox="0 0 664.5 205.6" style="enable-background:new 0 0 664.5 205.6;" xml:space="preserve">
<style type="text/css">
	.st0{display:none;fill:#194D7A;}
	.st1{fill:#c1c1c1;}
	.st2{fill:#e0e0e0;}
	.st3{fill:#555;}
	.st4{fill:#e0e0e0;stroke:#afafaf;stroke-width:5;stroke-miterlimit:10;}
	.st5{fill:#555;}
	.st6{fill:none;stroke:#555;stroke-width:5;stroke-miterlimit:10;}
	.st7{opacity:0.5;fill:none;stroke:#555;stroke-width:2;stroke-miterlimit:10;stroke-dasharray:8;enable-background:new    ;}
</style>
<rect x="-92.5" y="-155.6" class="st0" width="841.3" height="522"/>
<rect y="14.4" class="st1" width="664.5" height="22.1"/>
<path class="st2" d="M37.8,47c-11.9,0-21.5-9.7-21.5-21.5C16.3,13.6,26,4,37.8,4s21.5,9.7,21.5,21.5C59.4,37.3,49.7,47,37.8,47z"/>
<path class="st3" d="M37.8,5.4c11.1,0,20,9,20,20s-9,20-20,20s-20-9-20-20S26.8,5.4,37.8,5.4 M37.8,2.5c-12.7,0-23,10.3-23,23
	s10.3,23,23,23s23-10.3,23-23S50.6,2.5,37.8,2.5L37.8,2.5z"/>
<path class="st3" d="M37.8,22.9l2.5-5.1h4.3l-4.3,7.7l4.4,7.8h-4.3L37.8,28l-2.6,5.2h-4.3l4.4-7.8L31,17.8h4.2L37.8,22.9z"/>
<g>
	<path class="st4" d="M404.1,48.2c-12.5,0-22.7-10.2-22.7-22.7s10.2-22.7,22.7-22.7c12.4,0,22.7,10.2,22.7,22.7
		C426.8,38,416.6,48.2,404.1,48.2z"/>
	<polygon class="st5" points="396.3,30 404.1,18 411.9,30 	"/>
</g>
<g>
	<path class="st4" d="M487.3,48.2c-12.5,0-22.7-10.2-22.7-22.7s10.2-22.7,22.7-22.7c12.4,0,22.7,10.2,22.7,22.7
		C510,38,499.8,48.2,487.3,48.2z"/>
	<polygon class="st5" points="479.5,30 487.3,18 495.1,30 	"/>
</g>
<g>
	<path class="st4" d="M154.3,48.2c-12.6,0-22.7-10.3-22.7-22.7c0-12.6,10.3-22.7,22.7-22.7c12.5,0,22.7,10.3,22.7,22.7
		C177.2,38,166.9,48.2,154.3,48.2z"/>
	<polygon class="st5" points="162.1,21 154.3,33 146.6,21 	"/>
</g>
<g>
	<path class="st4" d="M237.5,48.2c-12.6,0-22.7-10.3-22.7-22.7c0-12.6,10.3-22.7,22.7-22.7c12.4,0,22.8,10.1,22.8,22.6
		C260.4,38,250.1,48.2,237.5,48.2z"/>
	<polygon class="st5" points="245.3,21 237.5,33 229.7,21 	"/>
</g>
<g>
	<path class="st4" d="M320.8,48.2c-12.6,0-22.7-10.3-22.7-22.7c0-12.6,10.3-22.7,22.7-22.7s22.8,10.1,22.8,22.6
		C343.7,38,333.4,48.2,320.8,48.2z"/>
	<polygon class="st5" points="328.6,21 320.8,33 313,21 	"/>
</g>
<g>
	<path class="st3" d="M663.9,101c0,2-0.5,3.6-1.4,4.7c-0.9,1.1-2.2,1.7-3.9,1.7s-3-0.6-3.9-1.7c-0.9-1.1-1.4-2.7-1.4-4.7v-2.8
		c0-2,0.5-3.6,1.4-4.7s2.2-1.7,3.9-1.7s3,0.6,3.9,1.7c0.9,1.1,1.4,2.7,1.4,4.7V101z M660.4,97.8c0-1.1-0.1-1.9-0.4-2.4
		s-0.7-0.8-1.3-0.8s-1,0.2-1.3,0.7s-0.4,1.2-0.4,2.3v3.9c0,1.1,0.1,1.9,0.4,2.5c0.3,0.5,0.7,0.8,1.3,0.8s1-0.3,1.3-0.8
		s0.4-1.3,0.4-2.4V97.8z"/>
</g>
<polyline class="st6" points="628.8,99.8 570.6,99.8 570.6,132.3 487.3,132.3 487.3,164.8 404.1,164.8 404.1,197.3 320.8,197.3 
	320.8,164.8 237.5,164.8 237.5,132.3 154.4,132.3 154.3,99.8 0,99.8 "/>
<line class="st7" x1="628.8" y1="99.8" x2="0" y2="99.8"/>
<line class="st7" x1="628.8" y1="132.3" x2="0" y2="132.3"/>
<line class="st7" x1="628.8" y1="164.8" x2="0" y2="164.8"/>
<line class="st7" x1="628.8" y1="197.3" x2="0" y2="197.3"/>
<g>
	<path class="st4" d="M570.6,48.2c-12.6,0-22.7-10.2-22.7-22.7c0-12.6,10.2-22.7,22.7-22.7c12.4,0,22.7,10.2,22.7,22.7
		C593.4,38,583.1,48.2,570.6,48.2z"/>
	<path class="st5" d="M570.6,22.8l2.1-3.3h4.8l-3.9,5.9l4.1,6.2h-4.8l-2.3-3.6l-2.3,3.6h-4.8l4.1-6.2l-3.9-5.9h4.8L570.6,22.8z"/>
</g>
<g>
	<path class="st3" d="M650.5,134.8h-6.3V132h6.3V134.8z"/>
	<path class="st3" d="M663.8,140h-10.6v-2.3l4.9-5.1c1.2-1.4,1.8-2.5,1.8-3.3c0-0.7-0.1-1.2-0.4-1.5c-0.3-0.3-0.7-0.5-1.2-0.5
		c-0.5,0-1,0.2-1.3,0.7c-0.3,0.5-0.5,1-0.5,1.7h-3.5c0-0.9,0.2-1.8,0.7-2.6c0.5-0.8,1.1-1.4,1.9-1.9c0.8-0.4,1.8-0.7,2.8-0.7
		c1.6,0,2.9,0.4,3.8,1.1c0.9,0.8,1.3,1.8,1.3,3.3c0,0.6-0.1,1.2-0.3,1.8c-0.2,0.6-0.6,1.2-1,1.8c-0.5,0.6-1.2,1.5-2.3,2.5l-2,2.3h6
		V140z"/>
</g>
<g>
	<path class="st3" d="M650.5,167.2h-6.3v-2.7h6.3V167.2z"/>
	<path class="st3" d="M662.5,166.4h1.5v2.7h-1.5v3.2H659v-3.2h-5.9l-0.2-2.2l6.1-9.8v0h3.5V166.4z M656.3,166.4h2.7v-4.7l-0.2,0.4
		L656.3,166.4z"/>
</g>
<g>
	<path class="st3" d="M650.5,199.7h-6.3v-2.7h6.3V199.7z"/>
	<path class="st3" d="M661.7,189.4v2.8h-0.2c-1.3,0-2.4,0.3-3.2,0.9c-0.8,0.6-1.4,1.5-1.6,2.6c0.8-0.8,1.8-1.2,3-1.2
		c1.3,0,2.4,0.5,3.1,1.4c0.8,1,1.2,2.2,1.2,3.8c0,1-0.2,1.9-0.7,2.7c-0.5,0.8-1.1,1.4-1.9,1.9s-1.7,0.7-2.7,0.7
		c-1.1,0-2-0.2-2.9-0.7s-1.5-1.2-2-2.1c-0.5-0.9-0.7-2-0.7-3.2v-1.4c0-1.6,0.3-3,1-4.2s1.6-2.2,2.9-2.9c1.2-0.7,2.6-1.1,4.1-1.1
		H661.7z M658.6,197.3c-0.5,0-0.9,0.1-1.2,0.3c-0.3,0.2-0.5,0.5-0.7,0.8v1.1c0,1.9,0.7,2.9,2,2.9c0.5,0,1-0.2,1.3-0.7
		c0.4-0.5,0.5-1.1,0.5-1.8c0-0.7-0.2-1.3-0.5-1.8C659.6,197.6,659.2,197.3,658.6,197.3z"/>
</g>
</svg>
