<?xml version="1.0" encoding="utf-8"?>
<svg style="fill: rgb(255, 255, 255);" width="18" height="18" viewBox="0 0 24 24" xmlns="http://www.w3.org/2000/svg">
  <defs>
    <path d="M0 0h24v24H0V0z" id="a"/>
    <style id="bx-google-fonts">@import url(https://fonts.googleapis.com/css?family=Roboto:100,300,500,700,900,100italic,300italic,400,400italic,500italic,700italic,900italic);</style>
  </defs>
  <path d="M23 8c0 1.1-.9 2-2 2-.18 0-.35-.02-.51-.07l-3.56 3.55c.05.16.07.34.07.52 0 1.1-.9 2-2 2s-2-.9-2-2c0-.18.02-.36.07-.52l-2.55-2.55c-.16.05-.34.07-.52.07s-.36-.02-.52-.07l-4.55 4.56c.05.16.07.33.07.51 0 1.1-.9 2-2 2s-2-.9-2-2 .9-2 2-2c.18 0 .35.02.51.07l4.56-4.55C8.02 9.36 8 9.18 8 9c0-1.1.9-2 2-2s2 .9 2 2c0 .18-.02.36-.07.52l2.55 2.55c.16-.05.34-.07.52-.07s.36.02.52.07l3.55-3.56C19.02 8.35 19 8.18 19 8c0-1.1.9-2 2-2s2 .9 2 2z" style="clip-path: url(#b); fill: rgb(255, 255, 255);" transform="matrix(0.9702957262759965, -0.2419218955996677, 0.2419218955996677, 0.9702957262759965, -2.5466115888496077, 3.2595137602141113)"/>
  <text x="1.164" y="10.825" style="font-size: 8px; font-family: Roboto; word-spacing: 0px; fill: rgb(255, 255, 255); font-weight: 700;">A</text>
  <text x="8.235" y="19.572" style="font-size: 8px; font-family: Roboto; word-spacing: 0px; fill: rgb(255, 255, 255); font-weight: 700;">B</text>
  <text x="11.482" y="9.022" style="font-size: 8px; font-family: Roboto; word-spacing: 0px; fill: rgb(255, 255, 255); font-weight: 700;">C</text>
  <text x="18.179" y="17.382" style="font-size: 8px; font-family: Roboto; word-spacing: 0px; fill: rgb(255, 255, 255); font-weight: 700;">D</text>
</svg>