<?xml version="1.0" encoding="utf-8"?>
<!-- Generator: Adobe Illustrator 22.0.1, SVG Export Plug-In . SVG Version: 6.00 Build 0)  -->
<svg version="1.1" id="Warstwa_1" xmlns="http://www.w3.org/2000/svg" xmlns:xlink="http://www.w3.org/1999/xlink" x="0px" y="0px"
	 viewBox="0 0 18 18" style="enable-background:new 0 0 18 18;" xml:space="preserve">
<style type="text/css">
	.st0{fill:none;}
	.st1{fill:#FFFFFF;}
	.st2{opacity:0;}
</style>
<path class="st0" d="M0,0"/>
<path class="st1" d="M9,1.4C4.8,1.4,1.5,4.8,1.5,9s3.4,7.5,7.5,7.5s7.5-3.4,7.5-7.5S13.2,1.4,9,1.4z M12.5,11.6
	c0,0.5-0.4,0.9-0.9,0.9H6.4c-0.5,0-0.9-0.4-0.9-0.9V6.4c0-0.5,0.4-0.9,0.9-0.9h1.4C7.9,5,8.4,4.6,9,4.6s1.1,0.4,1.3,0.9h1.4
	c0.5,0,0.9,0.4,0.9,0.9V11.6z"/>
<path class="st2" d="M9,5.9c0.2,0,0.4-0.2,0.4-0.4C9.4,5.2,9.2,5,9,5S8.6,5.2,8.6,5.4C8.6,5.7,8.8,5.9,9,5.9z"/>
<rect x="7" y="9.5" class="st1" width="3" height="1"/>
<rect x="7" y="7.5" class="st1" width="4" height="1"/>
</svg>
