<?xml version="1.0" encoding="utf-8"?>
<!-- Generator: Adobe Illustrator 20.1.0, SVG Export Plug-In . SVG Version: 6.00 Build 0)  -->
<svg version="1.1" id="Warstwa_1" xmlns:ev="http://www.w3.org/2001/xml-events"
	 xmlns="http://www.w3.org/2000/svg" xmlns:xlink="http://www.w3.org/1999/xlink" x="0px" y="0px" viewBox="0 0 285 284.8"
	 style="enable-background:new 0 0 285 284.8;" xml:space="preserve">
<style type="text/css">
	.st0{fill:#FFFFFF;}
	.st1{opacity:0.45;fill:#FFFFFF;}
</style>
<path class="st0" d="M30.2,266.1c9.4-25,24.4-29.7,36.5-31.9c12-2.2,41.2-9.5,43.7-16.4c0.8-2.2,1.1-23.6,1.1-28.4
	c6.8,5.7,16.8,11.7,29,12.2c0.6,0,1.2,0,1.8,0c10.8,0,21.2-4.3,31.3-12.8c0,5,0.3,26.6,1.1,28.9c2.6,6.9,31.7,14.2,43.7,16.4
	c12,2.1,27,6.9,36.5,31.9C264.3,291.1,20.7,291.1,30.2,266.1z M188.9,158.8c0,0-0.9,14.7-14,30.7l0,0c-11.1,12.8-22.5,19-33.9,18.5
	c-15.5-0.6-27.1-13.5-30.1-17.2v0c-14.2-16.6-15.1-32.1-15.1-32.1s-7.7,1.3-12-17.2c-4.3-18.5,4.3-14.2,4.3-14.2
	c-11.1-58.6,34.4-74.5,34.4-74.5c8.3-2.5,13.7-3.3,19.9-3.3c5.5,0,11.6,0.8,19.9,3.3c0,0,45.5,15.9,34.4,74.5c0,0,8.6-4.3,4.3,14.2
	C196.6,160.1,188.9,158.8,188.9,158.8z"/>
<rect y="-0.1" class="st1" width="285" height="285"/>
</svg>
