<?xml version="1.0" encoding="utf-8"?>
<!-- Generator: Adobe Illustrator 21.1.0, SVG Export Plug-In . SVG Version: 6.00 Build 0)  -->
<svg version="1.1" id="Warstwa_1" xmlns="http://www.w3.org/2000/svg" xmlns:xlink="http://www.w3.org/1999/xlink" x="0px" y="0px"
	 viewBox="0 0 24 24" style="enable-background:new 0 0 24 24;" xml:space="preserve">
<style type="text/css">
	.st0{fill:none;}
	.st1{fill:#FFFFFF;}
</style>
<path class="st0" d="M0,0h24v24H0V0z"/>
<path class="st1" d="M16.9,9.1L12.8,3c-0.2-0.3-0.5-0.4-0.8-0.4S11.4,2.7,11.2,3L7.1,9.1H2.6c-0.5,0-0.9,0.4-0.9,0.9
	c0,0.1,0,0.2,0,0.3l2.4,8.7c0.2,0.8,0.9,1.4,1.8,1.4h12.3c0.9,0,1.6-0.6,1.8-1.4l2.4-8.7l0-0.3c0-0.5-0.4-0.9-0.9-0.9H16.9z
	 M9.2,9.1L12,5l2.8,4.2H9.2z M12,16.7c-1,0-1.9-0.8-1.9-1.9s0.8-1.9,1.9-1.9s1.9,0.8,1.9,1.9S13,16.7,12,16.7z"/>
</svg>
