<?xml version="1.0" encoding="utf-8"?>
<!-- Generator: Adobe Illustrator 20.1.0, SVG Export Plug-In . SVG Version: 6.00 Build 0)  -->
<svg version="1.1" id="Warstwa_1" xmlns="http://www.w3.org/2000/svg" xmlns:xlink="http://www.w3.org/1999/xlink" x="0px" y="0px"
	 viewBox="0 0 18 18" style="enable-background:new 0 0 18 18;" xml:space="preserve">
<style type="text/css">
	.st0{fill:#000000;}
	.st1{fill:none;}
</style>
<path class="st0" d="M5.2,3.8h1.5V2.2H5.2V3.8z M5.2,15.8h1.5v-1.5H5.2V15.8z M8.2,15.8h1.5v-1.5H8.2V15.8z M2.2,15.8h1.5v-1.5H2.2
	V15.8z M2.2,12.8h1.5v-1.5H2.2V12.8z M2.2,9.8h1.5V8.2H2.2V9.8z M2.2,6.8h1.5V5.2H2.2V6.8z M2.2,3.8h1.5V2.2H2.2V3.8z M14.2,12.8
	h1.5v-1.5h-1.5V12.8z M14.2,9.8h1.5V8.2h-1.5V9.8z M14.2,15.8h1.5v-1.5h-1.5V15.8z M14.2,6.8h1.5V5.2h-1.5V6.8z M14.2,2.2v1.5h1.5
	V2.2H14.2z M8.2,3.8h1.5V2.2H8.2V3.8z M11.2,15.8h1.5v-1.5h-1.5V15.8z M11.2,3.8h1.5V2.2h-1.5V3.8z"/>
<path class="st1" d="M0,0h18v18H0V0z"/>
</svg>
