<?xml version="1.0" encoding="utf-8"?>
<!-- Generator: Adobe Illustrator 20.1.0, SVG Export Plug-In . SVG Version: 6.00 Build 0)  -->
<svg version="1.1" id="Warstwa_1" xmlns="http://www.w3.org/2000/svg" xmlns:xlink="http://www.w3.org/1999/xlink" x="0px" y="0px"
	 viewBox="0 0 18 18" style="enable-background:new 0 0 18 18;" xml:space="preserve">
<style type="text/css">
	.st0{fill:none;}
	.st1{fill:#000000;}
	.st2{fill:none;stroke:#000000;stroke-miterlimit:10;}
	.st3{display:none;}
</style>
<path class="st0" d="M0.5,0h18v18h-18V0z"/>
<g id="candle_chart">
	<g>
		<path class="st1" d="M6,8v3H5V8H6 M7,7H4v5h3V7L7,7z"/>
	</g>
	<line class="st2" x1="5.5" y1="12" x2="5.5" y2="15"/>
	<line class="st2" x1="5.5" y1="5" x2="5.5" y2="7"/>
	<rect x="8" y="5" class="st1" width="3" height="6"/>
	<line class="st2" x1="9.5" y1="2" x2="9.5" y2="13"/>
	<g>
		<path class="st1" d="M14,9v3h-1V9H14 M15,8h-3v5h3V8L15,8z"/>
	</g>
	<line class="st2" x1="13.5" y1="13" x2="13.5" y2="15"/>
	<line class="st2" x1="13.5" y1="6" x2="13.5" y2="8"/>
</g>
<g id="siatka" class="st3">
</g>
</svg>
