<?xml version="1.0" encoding="utf-8"?>
<!-- Generator: Adobe Illustrator 23.0.1, SVG Export Plug-In . SVG Version: 6.00 Build 0)  -->
<svg version="1.1" id="Warstwa_1" xmlns="http://www.w3.org/2000/svg" xmlns:xlink="http://www.w3.org/1999/xlink" x="0px" y="0px" viewBox="0 0 18 18" style="enable-background:new 0 0 18 18;" xml:space="preserve">
<style type="text/css">
	.st0{fill:none;}
	.st1{fill:#FFFFFF;}
</style>
<path class="st0" d="M0,0h18v18H0V0z"/>
<path class="st1" d="M9,1.4C4.8,1.4,1.5,4.8,1.5,9s3.4,7.5,7.5,7.5s7.5-3.4,7.5-7.5C16.5,4.9,13.2,1.4,9,1.4z M13.5,6.9L10,10.7
	c-0.2,0.2-0.5,0.2-0.7,0L7.8,9.2l-2.5,2.5c-0.2,0.2-0.5,0.2-0.7,0l0,0c-0.2-0.2-0.2-0.5,0-0.7l2.9-2.9c0.2-0.2,0.5-0.2,0.7,0
	l1.6,1.6l3.1-3.4c0.2-0.2,0.5-0.2,0.7,0C13.6,6.4,13.6,6.7,13.5,6.9z"/>
</svg>
