<?xml version="1.0" encoding="utf-8"?>
<!-- Generator: Adobe Illustrator 23.0.1, SVG Export Plug-In . SVG Version: 6.00 Build 0)  -->
<svg version="1.1" id="Warstwa_1" xmlns="http://www.w3.org/2000/svg" xmlns:xlink="http://www.w3.org/1999/xlink" x="0px" y="0px"
	 width="14px" height="14px" viewBox="0 0 14 14" style="enable-background:new 0 0 14 14;" xml:space="preserve">
<style type="text/css">
	.st0{fill:#FFFFFF;}
	.st1{opacity:0.4;fill:#FFFFFF;}
</style>
<polygon class="st0" points="12.4,1.4 6.7,7.1 4.5,4.9 3.4,6 6.7,9.3 13.5,2.5 "/>
<path class="st1" d="M10.2,5.8c0.1,0.4,0.2,0.8,0.2,1.2c0,2.2-1.8,4-4,4s-4-1.8-4-4c0-2.2,1.8-4,4-4c1.2,0,2.3,0.6,3,1.4l1.1-1.1
	C9.5,2.2,8,1.5,6.4,1.5C3.3,1.5,0.9,4,0.9,7c0,3,2.5,5.5,5.5,5.5c3,0,5.5-2.5,5.5-5.5c0-0.8-0.2-1.6-0.5-2.3L10.2,5.8z"/>
</svg>
