<?xml version="1.0" encoding="UTF-8" standalone="no"?>
<svg
   xmlns:dc="http://purl.org/dc/elements/1.1/"
   xmlns:cc="http://creativecommons.org/ns#"
   xmlns:rdf="http://www.w3.org/1999/02/22-rdf-syntax-ns#"
   xmlns:svg="http://www.w3.org/2000/svg"
   xmlns="http://www.w3.org/2000/svg"
   xmlns:sodipodi="http://sodipodi.sourceforge.net/DTD/sodipodi-0.dtd"
   xmlns:inkscape="http://www.inkscape.org/namespaces/inkscape"
   fill="#000000"
   height="18"
   viewBox="0 0 24 24"
   width="18"
   id="svg2"
   version="1.1"
   inkscape:version="0.91 r13725"
   sodipodi:docname="details_white.svg">
  <metadata
     id="metadata12">
    <rdf:RDF>
      <cc:Work
         rdf:about="">
        <dc:format>image/svg+xml</dc:format>
        <dc:type
           rdf:resource="http://purl.org/dc/dcmitype/StillImage" />
        <dc:title></dc:title>
      </cc:Work>
    </rdf:RDF>
  </metadata>
  <defs
     id="defs10" />
  <sodipodi:namedview
     pagecolor="#ffffff"
     bordercolor="#666666"
     borderopacity="1"
     objecttolerance="10"
     gridtolerance="10"
     guidetolerance="10"
     inkscape:pageopacity="0"
     inkscape:pageshadow="2"
     inkscape:window-width="1920"
     inkscape:window-height="1015"
     id="namedview8"
     showgrid="true"
     inkscape:zoom="6.5555556"
     inkscape:cx="-12.99895"
     inkscape:cy="1.8729886"
     inkscape:window-x="0"
     inkscape:window-y="0"
     inkscape:window-maximized="1"
     inkscape:current-layer="svg2">
    <inkscape:grid
       type="xygrid"
       id="grid4140" />
  </sodipodi:namedview>
  <path
     d="M0 0h24v24H0z"
     fill="none"
     id="path6" />
  <path
     style="fill:#ffffff;fill-opacity:1;stroke:none;stroke-width:1.45000005;stroke-miterlimit:4;stroke-dasharray:none;stroke-opacity:1"
     d="M 9 2 A 6.9999998 6.9999998 0 0 0 2 9 A 6.9999998 6.9999998 0 0 0 9 16 A 6.9999998 6.9999998 0 0 0 16 9 A 6.9999998 6.9999998 0 0 0 9 2 z M 10.320312 3.6601562 C 10.800313 3.6601563 11.144531 4.0349219 11.144531 4.5449219 C 11.144531 5.1599219 10.709375 5.625 10.109375 5.625 C 9.614375 5.625 9.3007812 5.2945313 9.3007812 4.7695312 C 9.3007812 4.1545312 9.7503125 3.6601562 10.320312 3.6601562 z M 10.035156 7.0507812 C 10.260156 7.0507813 10.425781 7.2754685 10.425781 7.6054688 C 10.425781 7.8904688 10.364062 8.339375 10.289062 8.609375 L 9.4804688 11.550781 C 9.2854687 12.255781 9.1796875 12.749688 9.1796875 12.929688 C 9.1796875 13.019687 9.269375 13.109375 9.359375 13.109375 C 9.494375 13.109375 9.7653906 12.975156 10.275391 12.660156 L 10.679688 12.404297 L 10.859375 12.824219 C 10.694375 12.944219 10.634453 12.975 10.439453 13.125 C 9.2244531 13.995 8.5192188 14.339844 7.9492188 14.339844 C 7.6642188 14.339844 7.4707031 14.085313 7.4707031 13.695312 C 7.4707031 13.470313 7.5155469 13.124063 7.5605469 12.914062 L 8.4453125 9.3007812 C 8.5353125 8.9407813 8.5644531 8.7742187 8.5644531 8.6992188 C 8.5644531 8.5942187 8.5040625 8.5351562 8.4140625 8.5351562 C 8.2790625 8.5351563 7.6658595 8.8349219 7.3808594 9.0449219 L 7.0507812 9.2851562 L 6.8554688 8.8945312 L 7.8007812 8.1894531 C 8.7157812 7.4994531 9.6151562 7.0507812 10.035156 7.0507812 z "
     id="path4144"
     transform="scale(1.3333333,1.3333333)" />
  <g
     style="font-style:normal;font-weight:normal;font-size:53.33333206px;line-height:125%;font-family:sans-serif;letter-spacing:0px;word-spacing:0px;fill:#ffffff;fill-opacity:1;stroke:none;stroke-width:1px;stroke-linecap:butt;stroke-linejoin:miter;stroke-opacity:1"
     id="text4146" />
</svg>
