<?xml version="1.0" encoding="utf-8"?>
<!-- Generator: Adobe Illustrator 17.1.0, SVG Export Plug-In . SVG Version: 6.00 Build 0)  -->
<!DOCTYPE svg PUBLIC "-//W3C//DTD SVG 1.1//EN" "http://www.w3.org/Graphics/SVG/1.1/DTD/svg11.dtd">
<svg version="1.1" id="Warstwa_1" xmlns="http://www.w3.org/2000/svg" xmlns:xlink="http://www.w3.org/1999/xlink" x="0px" y="0px"
	 viewBox="0 0 18 18" enable-background="new 0 0 18 18" xml:space="preserve">
<path fill="none" d="M0,0h18v18H0V0z"/>
<path fill="#FFFFFF" d="M9,1.4C4.8,1.4,1.5,4.8,1.5,9s3.4,7.5,7.5,7.5s7.5-3.4,7.5-7.5S13.2,1.4,9,1.4 M11.3,5.2
	c0.1,0,0.2,0,0.3,0.1l1,1c0.2,0.2,0.2,0.4,0,0.6l-0.8,0.8l-1.5-1.5l0.8-0.8C11.1,5.3,11.2,5.2,11.3,5.2 M9.9,6.5l1.6,1.6l-4.6,4.6
	H5.3v-1.6L9.9,6.5z"/>
</svg>
