<?xml version="1.0" encoding="utf-8"?>
<!-- Generator: Adobe Illustrator 20.1.0, SVG Export Plug-In . SVG Version: 6.00 Build 0)  -->
<svg version="1.1" id="Warstwa_1" xmlns="http://www.w3.org/2000/svg" xmlns:xlink="http://www.w3.org/1999/xlink" x="0px" y="0px"
	 viewBox="0 0 18 18" style="enable-background:new 0 0 18 18;" xml:space="preserve">
<style type="text/css">
	.st0{fill:#2196F3;}
	.st1{fill:none;}
</style>
<path class="st0" d="M9,1.5C4.9,1.5,1.5,4.9,1.5,9s3.4,7.5,7.5,7.5c4.1,0,7.5-3.4,7.5-7.5S13.1,1.5,9,1.5z M9,15c-3.3,0-6-2.7-6-6
	s2.7-6,6-6s6,2.7,6,6S12.3,15,9,15z"/>
<path class="st1" d="M0,0h18v18H0V0z"/>
<path class="st0" d="M9.4,5.2H8.2v4.5l3.9,2.4l0.6-0.9l-3.4-2V5.2z"/>
</svg>
