<?xml version="1.0" encoding="utf-8"?>
<!-- Generator: Adobe Illustrator 23.0.1, SVG Export Plug-In . SVG Version: 6.00 Build 0)  -->
<svg version="1.1" id="Warstwa_1" xmlns="http://www.w3.org/2000/svg" xmlns:xlink="http://www.w3.org/1999/xlink" x="0px" y="0px"
	 width="18px" height="18px" viewBox="0 0 18 18" style="enable-background:new 0 0 18 18;" xml:space="preserve">
<style type="text/css">
	.st0{fill:none;}
	.st1{fill:#000000;}
</style>
<path class="st0" d="M0,0h18v18H0V0z"/>
<path class="st1" d="M9.4,3.9c1.8,0,2.4,0.8,2.5,2.1h2.2c-0.1-1.7-1.1-3.3-3.2-3.8V0h-3v2.2c-0.5,0.1-1,0.3-1.5,0.5l1.5,1.5
	C8.3,4,8.8,3.9,9.4,3.9z M2.3,1.1L1,2.3l3.4,3.4C4.4,7.9,6,9,8.4,9.7l3.5,3.5c-0.3,0.5-1.1,0.9-2.4,0.9c-2.1,0-2.9-0.9-3-2.1H4.3
	c0.1,2.2,1.8,3.4,3.7,3.8V18h3v-2.1c1-0.2,1.8-0.5,2.4-1.1l2.2,2.2l1.3-1.3L2.3,1.1z"/>
</svg>
