<?xml version="1.0" encoding="utf-8"?>
<!-- Generator: Adobe Illustrator 20.1.0, SVG Export Plug-In . SVG Version: 6.00 Build 0)  -->
<svg version="1.1" id="Warstwa_1" xmlns="http://www.w3.org/2000/svg" xmlns:xlink="http://www.w3.org/1999/xlink" x="0px" y="0px"
	 viewBox="0 0 36 36" style="enable-background:new 0 0 36 36;" xml:space="preserve">
<style type="text/css">
	.st0{fill:none;}
	.st1{fill:#FFFFFF;}
</style>
<path class="st0" d="M0,0h36v36H0V0z"/>
<path class="st1" d="M18,3C9.7,3,3,9.7,3,18s6.7,15,15,15s15-6.7,15-15S26.3,3,18,3z M16.7,9.9c0-0.7,0.6-1.3,1.3-1.3
	s1.3,0.6,1.3,1.3v5.9c0,0.7-0.6,1.3-1.3,1.3s-1.3-0.6-1.3-1.3V9.9z M18,27.1c-4.9,0-8.8-4-8.8-8.8c0-2.5,1.1-4.8,2.7-6.4
	c0.5-0.5,1.4-0.5,1.9,0c0.5,0.5,0.5,1.4,0,1.9c-1.2,1.1-1.9,2.7-1.9,4.4c0,1.7,0.7,3.2,1.8,4.3c1.1,1.1,2.6,1.8,4.3,1.8
	c1.7,0,3.2-0.7,4.3-1.8c1.1-1.1,1.8-2.6,1.8-4.3c0-1.8-0.7-3.3-1.9-4.4c-0.5-0.5-0.6-1.4,0-1.9s1.4-0.6,1.9,0
	c1.7,1.6,2.7,3.9,2.7,6.4C26.8,23.1,22.9,27.1,18,27.1z"/>
</svg>
