<?xml version="1.0" encoding="utf-8"?>
<!-- Generator: Adobe Illustrator 20.1.0, SVG Export Plug-In . SVG Version: 6.00 Build 0)  -->
<svg version="1.1" id="Warstwa_1" xmlns="http://www.w3.org/2000/svg" xmlns:xlink="http://www.w3.org/1999/xlink" x="0px" y="0px"
	 viewBox="0 0 1515 1515" style="enable-background:new 0 0 1515 1515;" xml:space="preserve">
<style type="text/css">
	.st0{fill:#2196F3;}
</style>
<path class="st0" d="M363,1387l91-91l-235-235l-91,91v107h128v128H363z M886,459c0-14.7-7.3-22-22-22c-6.7,0-12.3,2.3-17,7L305,986
	c-4.7,4.7-7,10.3-7,17c0,14.7,7.3,22,22,22c6.7,0,12.3-2.3,17-7l542-542C883.7,471.3,886,465.7,886,459z M832,267l416,416l-832,832
	H0v-416L832,267z M1515,363c0,35.3-12.3,65.3-37,90l-166,166L896,203l166-165c24-25.3,54-38,90-38c35.3,0,65.7,12.7,91,38l235,234
	C1502.7,298,1515,328.3,1515,363z"/>
</svg>
