<?xml version="1.0" encoding="utf-8"?>
<!-- Generator: Adobe Illustrator 17.1.0, SVG Export Plug-In . SVG Version: 6.00 Build 0)  -->
<!DOCTYPE svg PUBLIC "-//W3C//DTD SVG 1.1//EN" "http://www.w3.org/Graphics/SVG/1.1/DTD/svg11.dtd">
<svg version="1.1" id="Warstwa_1" xmlns="http://www.w3.org/2000/svg" xmlns:xlink="http://www.w3.org/1999/xlink" x="0px" y="0px"
	 viewBox="0 0 18 18" enable-background="new 0 0 18 18" xml:space="preserve">
<path fill="none" d="M0,0h18v18H0V0z"/>
<path fill="#FFFFFF" d="M9,1.5C4.9,1.5,1.5,4.9,1.5,9s3.4,7.5,7.5,7.5s7.5-3.4,7.5-7.5S13.1,1.5,9,1.5z M12.7,8.5H9.5L11,7
	c-0.5-0.5-1.2-0.8-2-0.8C7.5,6.2,6.2,7.5,6.2,9s1.2,2.8,2.8,2.8c1.2,0,2.2-0.8,2.6-1.9h1c-0.4,1.6-1.9,2.8-3.6,2.8
	C7,12.7,5.3,11,5.3,9S7,5.3,9,5.3c1,0,1.9,0.4,2.6,1.1l1.1-1.1V8.5z"/>
</svg>
