<?xml version="1.0" encoding="utf-8"?>
<!-- Generator: Adobe Illustrator 20.1.0, SVG Export Plug-In . SVG Version: 6.00 Build 0)  -->
<svg version="1.1" id="Warstwa_1" xmlns="http://www.w3.org/2000/svg" xmlns:xlink="http://www.w3.org/1999/xlink" x="0px" y="0px"
	 viewBox="0 0 160 160" style="enable-background:new 0 0 160 160;" xml:space="preserve">
<style type="text/css">
	.st0{fill:#FFFFFF;}
</style>
<path class="st0" d="M93.9,80c0-3.8-1.4-7.1-4.1-9.8s-6-4.1-9.8-4.1s-7.1,1.4-9.8,4.1s-4.1,6-4.1,9.8s1.4,7.1,4.1,9.8s6,4.1,9.8,4.1
	s7.1-1.4,9.8-4.1S93.9,83.8,93.9,80z M121.6,74.1v12c0,0.4-0.1,0.8-0.4,1.2s-0.7,0.6-1.1,0.7l-10,1.5c-0.7,2-1.4,3.6-2.1,4.9
	c1.3,1.8,3.2,4.3,5.8,7.5c0.4,0.4,0.5,0.9,0.5,1.4s-0.2,0.9-0.5,1.2c-1,1.3-2.8,3.3-5.4,5.9c-2.6,2.6-4.3,3.8-5.1,3.8
	c-0.4,0-0.9-0.2-1.4-0.5l-7.5-5.9c-1.6,0.8-3.2,1.5-4.9,2.1c-0.6,4.9-1.1,8.3-1.6,10.1c-0.3,1-0.9,1.5-2,1.5H74
	c-0.5,0-0.9-0.2-1.3-0.5s-0.6-0.7-0.6-1.2l-1.5-10c-1.8-0.6-3.4-1.2-4.9-2l-7.6,5.8c-0.4,0.3-0.8,0.5-1.4,0.5c-0.5,0-1-0.2-1.4-0.6
	c-4.6-4.1-7.5-7.2-8.9-9.1c-0.3-0.4-0.4-0.8-0.4-1.2c0-0.4,0.1-0.8,0.4-1.2c0.5-0.8,1.5-2,2.8-3.6c1.3-1.6,2.3-2.9,2.9-3.8
	c-1-1.8-1.7-3.6-2.2-5.4L40,87.9c-0.5-0.1-0.8-0.3-1.1-0.7c-0.3-0.4-0.4-0.8-0.4-1.3v-12c0-0.4,0.1-0.8,0.4-1.2
	c0.3-0.4,0.6-0.6,1-0.7l10.1-1.5c0.5-1.7,1.2-3.3,2.1-5c-1.4-2.1-3.4-4.6-5.8-7.5c-0.4-0.4-0.5-0.9-0.5-1.3c0-0.4,0.2-0.8,0.5-1.2
	c0.9-1.3,2.7-3.2,5.3-5.8c2.6-2.6,4.3-3.9,5.1-3.9c0.5,0,0.9,0.2,1.4,0.5l7.5,5.8c1.6-0.8,3.2-1.5,4.9-2.1c0.6-4.9,1.1-8.3,1.6-10.1
	c0.3-1,0.9-1.5,2-1.5h12c0.5,0,0.9,0.2,1.3,0.5c0.4,0.3,0.6,0.7,0.6,1.2l1.5,10c1.8,0.6,3.4,1.2,4.9,2l7.7-5.8
	c0.3-0.3,0.8-0.5,1.3-0.5c0.5,0,0.9,0.2,1.4,0.5c4.7,4.3,7.6,7.4,8.9,9.2c0.3,0.3,0.4,0.7,0.4,1.2c0,0.4-0.1,0.8-0.4,1.2
	c-0.5,0.8-1.5,2-2.8,3.6s-2.3,2.9-2.9,3.8c0.9,1.8,1.7,3.6,2.2,5.3l9.9,1.5c0.5,0.1,0.8,0.3,1.1,0.7
	C121.5,73.2,121.6,73.6,121.6,74.1z"/>
</svg>
