<?xml version="1.0" encoding="utf-8"?>
<!-- Generator: Adobe Illustrator 23.0.1, SVG Export Plug-In . SVG Version: 6.00 Build 0)  -->
<svg version="1.1" id="Warstwa_1" xmlns="http://www.w3.org/2000/svg" xmlns:xlink="http://www.w3.org/1999/xlink" x="0px" y="0px" viewBox="0 0 18 18" style="enable-background:new 0 0 18 18;" xml:space="preserve">
<style type="text/css">
	.st0{fill:#FFFFFF;}
</style>
<path class="st0" d="M8.7,1.5C4.6,1.5,1.2,4.9,1.2,9s3.4,7.5,7.5,7.5s7.5-3.4,7.5-7.5S12.9,1.5,8.7,1.5z M11.6,12.7l-1.4-1.4
	c-0.1,0-0.1,0-0.2,0H7.7L6.2,9.9H5V7.9h1.2l0.2-0.2L4.6,5.8l0.6-0.5L7,7.2l3.8,3.8l0,0l1.3,1.3L11.6,12.7z M12.5,8.1h-1.7v1.7h1.7
	v0.8h-1.1L7.5,6.6l0.2-0.2H10c0.4,0,0.8,0.4,0.8,0.8h1.7V8.1z"/>
</svg>
