<?xml version="1.0" encoding="utf-8"?>
<!-- Generator: Adobe Illustrator 23.0.1, SVG Export Plug-In . SVG Version: 6.00 Build 0)  -->
<svg version="1.1" id="Warstwa_1" xmlns="http://www.w3.org/2000/svg" xmlns:xlink="http://www.w3.org/1999/xlink" x="0px" y="0px"
	 viewBox="0 0 24 24" style="enable-background:new 0 0 24 24;" xml:space="preserve">
<style type="text/css">
	.st0{fill:none;}
	.st1{fill:#FFFFFF;}
</style>
<path class="st0" d="M0,0h24v24H0V0z"/>
<path class="st1" d="M9.7,18.8h5.5c1,0,2-1,2-2h4v-2h-4v-4h4v-2h-2.5l-9.5,9.5L9.7,18.8z M8,17L17,8l0,0l3.2-3.2L19,3.5l-3.4,3.4
	c-0.1,0-0.3-0.1-0.4-0.1H9.7l-3.5,3.5h-3v5h3l0.5,0.5l-4.5,4.5l1.3,1.3C3.5,21.5,8,17,8,17z"/>
</svg>
