<?xml version="1.0" encoding="utf-8"?>
<!-- Generator: Adobe Illustrator 23.0.1, SVG Export Plug-In . SVG Version: 6.00 Build 0)  -->
<svg version="1.1" id="Warstwa_1" xmlns="http://www.w3.org/2000/svg" xmlns:xlink="http://www.w3.org/1999/xlink" x="0px" y="0px"
	 viewBox="0 0 24 24" style="enable-background:new 0 0 24 24;" xml:space="preserve">
<style type="text/css">
	.st0{fill:none;}
</style>
<path class="st0" d="M0,0h24v24H0V0z"/>
<path d="M9.7,5.7h5.5c1,0,2,1,2,2h4v2h-4v4h4v2h-2.5L9.2,6.2L9.7,5.7z M7.9,7.5l9.1,9l0,0l3.2,3.2L19,21l-3.4-3.4
	c-0.1,0-0.3,0.1-0.4,0.1H9.7l-3.5-3.5h-3v-5h3l0.5-0.5L2.2,4.3L3.5,3C3.5,3,7.9,7.5,7.9,7.5z"/>
</svg>
