<?xml version="1.0" encoding="utf-8"?>
<!-- Generator: Adobe Illustrator 23.0.1, SVG Export Plug-In . SVG Version: 6.00 Build 0)  -->
<svg version="1.1" id="Warstwa_1" xmlns="http://www.w3.org/2000/svg" xmlns:xlink="http://www.w3.org/1999/xlink" x="0px" y="0px" viewBox="0 0 18 18" style="enable-background:new 0 0 18 18;" xml:space="preserve">
<path d="M9,1.5C4.9,1.5,1.5,4.9,1.5,9s3.4,7.5,7.5,7.5s7.5-3.4,7.5-7.5S13.1,1.5,9,1.5z M5.4,12.6l-0.6-0.5l1.9-1.9l-0.2-0.2H5.2V8
	h1.2l1.4-1.5h2.3c0.1,0,0.1,0,0.2,0l1.4-1.4l0.5,0.5L11,6.9l0,0l-3.8,3.8L5.4,12.6z M12.8,8.2h-1.7v1.7h1.7v0.8h-1.7
	c0,0.4-0.4,0.8-0.8,0.8H7.9l-0.2-0.2l3.9-3.9h1.1V8.2z"/>
</svg>
