<?xml version="1.0" encoding="utf-8"?>
<!-- Generator: Adobe Illustrator 23.0.1, SVG Export Plug-In . SVG Version: 6.00 Build 0)  -->
<svg version="1.1" id="Warstwa_1" xmlns="http://www.w3.org/2000/svg" xmlns:xlink="http://www.w3.org/1999/xlink" x="0px" y="0px"
	 width="29px" height="29px" viewBox="0 0 29 29" style="enable-background:new 0 0 29 29;" xml:space="preserve">
<style type="text/css">
	.st0{fill:none;stroke:#000000;stroke-width:0.5;stroke-miterlimit:10;stroke-dasharray:1;}
	.st1{fill:none;stroke:#000000;stroke-width:1.25;stroke-linecap:round;stroke-linejoin:round;stroke-miterlimit:10;}
	.st2{fill:#000000;}
</style>
<line class="st0" x1="8" y1="19.5" x2="21" y2="19.5"/>
<line class="st0" x1="8" y1="17.5" x2="21" y2="17.5"/>
<line class="st0" x1="8" y1="14.5" x2="21" y2="14.5"/>
<line class="st0" x1="14" y1="9.5" x2="21" y2="9.5"/>
<polyline class="st1" points="20.5,9.5 15.1,17.4 11.9,14.4 8.5,19.5 "/>
<g id="siatka">
</g>
<g>
	<path class="st2" d="M8,7.1h1.6c1.7,0,2.8,0.9,2.8,2.8s-1.1,2.9-2.8,2.9H8V7.1z M9.5,11.8c1,0,1.6-0.5,1.6-1.8
		c0-1.4-0.7-1.8-1.6-1.8H9.3v3.6H9.5z"/>
</g>
</svg>
