<?xml version="1.0" encoding="utf-8"?>
<!-- Generator: Adobe Illustrator 27.0.0, SVG Export Plug-In . SVG Version: 6.00 Build 0)  -->
<svg version="1.1" id="Warstwa_1" xmlns="http://www.w3.org/2000/svg" xmlns:xlink="http://www.w3.org/1999/xlink" x="0px" y="0px"
	 viewBox="0 0 18 18" enable-background="new 0 0 18 18" xml:space="preserve">
<path fill="#7F9DCC" d="M15.2,3.8H13l-1-1.6C11.9,2.1,11.7,2,11.5,2H6.5C6.3,2,6.1,2.1,6,2.3L5,3.8H2.8C1.8,3.8,1,4.6,1,5.7v8.5
	c0,1,0.8,1.8,1.8,1.8h12.3c1,0,1.8-0.8,1.8-1.8V5.7C17,4.6,16.2,3.8,15.2,3.8z M11.8,9.6c0,1.5-1.2,2.7-2.8,2.7s-2.8-1.2-2.8-2.7
	S7.5,6.9,9,6.9S11.8,8.1,11.8,9.6z"/>
</svg>
