<?xml version="1.0" encoding="utf-8"?>
<!-- Generator: Adobe Illustrator 20.1.0, SVG Export Plug-In . SVG Version: 6.00 Build 0)  -->
<svg version="1.1" id="Warstwa_1" xmlns="http://www.w3.org/2000/svg" xmlns:xlink="http://www.w3.org/1999/xlink" x="0px" y="0px"
	 viewBox="0 0 29 29" style="enable-background:new 0 0 29 29;" xml:space="preserve">
<style type="text/css">
	.st0{fill:none;stroke:#609DC6;stroke-width:0.5;stroke-miterlimit:10;}
	.st1{fill:none;stroke:#A7C0CE;stroke-width:0.2;stroke-miterlimit:10;}
	.st2{fill:none;stroke:#000000;stroke-linecap:square;stroke-miterlimit:10;}
	.st3{fill:none;stroke:#000000;stroke-miterlimit:10;}
	.st4{fill:none;stroke:#000000;stroke-miterlimit:10;stroke-dasharray:1.8571,1.8571;}
	.st5{fill:#000000;}
</style>
<g id="cycles">
	<path class="st0" d="M9.4,19.6"/>
	<path class="st0" d="M9.4,17.4"/>
	<path class="st1" d="M9.4,10.3"/>
	<path class="st1" d="M9.4,8.1"/>
	<line class="st2" x1="7.5" y1="14.5" x2="20.5" y2="14.5"/>
	<g>
		<g>
			<line class="st3" x1="7.5" y1="22" x2="7.5" y2="21"/>
			<line class="st4" x1="7.5" y1="19.1" x2="7.5" y2="8.9"/>
			<line class="st3" x1="7.5" y1="8" x2="7.5" y2="7"/>
		</g>
	</g>
	<g>
		<g>
			<line class="st3" x1="21.5" y1="22" x2="21.5" y2="21"/>
			<line class="st4" x1="21.5" y1="19.1" x2="21.5" y2="8.9"/>
			<line class="st3" x1="21.5" y1="8" x2="21.5" y2="7"/>
		</g>
	</g>
	<g>
		<g>
			<line class="st3" x1="14.5" y1="22" x2="14.5" y2="21"/>
			<line class="st4" x1="14.5" y1="19.1" x2="14.5" y2="8.9"/>
			<line class="st3" x1="14.5" y1="8" x2="14.5" y2="7"/>
		</g>
	</g>
	<g>
		
			<ellipse transform="matrix(1 -6.340269e-03 6.340269e-03 1 -9.178539e-02 4.784442e-02)" class="st5" cx="7.5" cy="14.5" rx="1.5" ry="1.5"/>
	</g>
	<g>
		
			<ellipse transform="matrix(1 -6.340269e-03 6.340269e-03 1 -9.164429e-02 9.222720e-02)" class="st5" cx="14.5" cy="14.5" rx="1.5" ry="1.5"/>
	</g>
	<g>
		
			<ellipse transform="matrix(1 -6.340269e-03 6.340269e-03 1 -9.150353e-02 0.1366)" class="st5" cx="21.5" cy="14.5" rx="1.5" ry="1.5"/>
	</g>
</g>
<g id="siatka">
</g>
</svg>
