<?xml version="1.0" encoding="utf-8"?>
<!-- Generator: Adobe Illustrator 23.0.1, SVG Export Plug-In . SVG Version: 6.00 Build 0)  -->
<svg version="1.1" id="Warstwa_1" xmlns="http://www.w3.org/2000/svg" xmlns:xlink="http://www.w3.org/1999/xlink" x="0px" y="0px"
	 width="29px" height="29px" viewBox="0 0 29 29" style="enable-background:new 0 0 29 29;" xml:space="preserve">
<style type="text/css">
	.st0{fill:none;stroke:#FFFFFF;stroke-miterlimit:10;stroke-dasharray:1;}
	.st1{fill:none;stroke:#FFFFFF;stroke-miterlimit:10;}
	.st2{fill:#FFFFFF;}
</style>
<g id="fibon">
	<line class="st0" x1="8" y1="14.5" x2="17.1" y2="14.5"/>
	<line class="st0" x1="8" y1="17.5" x2="17.1" y2="17.5"/>
	<line class="st0" x1="8" y1="19.5" x2="17.1" y2="19.5"/>
</g>
<line class="st1" x1="13.5" y1="9.5" x2="16.8" y2="9.5"/>
<g id="siatka">
</g>
<path class="st2" d="M16.8,9v1c1.1,0,2,0.9,2,2s-0.9,2-2,2v1c1.7,0,3-1.3,3-3S18.5,9,16.8,9z"/>
<path class="st2" d="M16.8,14v1c0.6,0,1,0.4,1,1s-0.4,1-1,1v1c1.1,0,2-0.9,2-2C18.8,14.9,17.9,14,16.8,14z"/>
<path class="st2" d="M16.8,17v1c0.3,0,0.5,0.2,0.5,0.5c0,0.3-0.2,0.5-0.5,0.5v1c0.8,0,1.5-0.7,1.5-1.5C18.3,17.7,17.6,17,16.8,17z"
	/>
<g>
	<path class="st2" d="M8,7.1h1.6c1.7,0,2.8,0.9,2.8,2.8s-1.1,2.9-2.8,2.9H8V7.1z M9.5,11.8c1,0,1.6-0.5,1.6-1.8
		c0-1.4-0.7-1.8-1.6-1.8H9.3v3.6H9.5z"/>
</g>
</svg>
