<?xml version="1.0" encoding="utf-8"?>
<!-- Generator: Adobe Illustrator 20.1.0, SVG Export Plug-In . SVG Version: 6.00 Build 0)  -->
<svg version="1.1" id="Warstwa_1" xmlns="http://www.w3.org/2000/svg" xmlns:xlink="http://www.w3.org/1999/xlink" x="0px" y="0px"
	 viewBox="0 0 29 29" style="enable-background:new 0 0 29 29;" xml:space="preserve">
<style type="text/css">
	.st0{fill:#000000;}
	.st1{display:none;}
</style>
<g id="line_bar_chart">
	<polygon class="st0" points="8,9.4 8,7.4 10.5,12.5 12.3,12.9 14.7,9.8 16.7,15.8 18,14.2 20.2,7.9 21,8.6 18.9,14.8 16.3,17.7 
		14.3,11.9 12.7,14 10,13.4 	"/>
	<rect x="8" y="9.4" class="st0" width="1" height="11.6"/>
	<rect x="10" y="13.4" class="st0" width="1" height="7.6"/>
	<rect x="12" y="13.4" class="st0" width="1" height="7.6"/>
	<rect x="14" y="11.2" class="st0" width="1" height="9.8"/>
	<rect x="16" y="16.3" class="st0" width="1" height="4.7"/>
	<rect x="18" y="14.5" class="st0" width="1" height="6.5"/>
	<polygon class="st0" points="21,21 20,21 20,8.4 21,5.4 	"/>
</g>
<g id="siatka" class="st1">
</g>
</svg>
