<?xml version="1.0" encoding="utf-8"?>
<!-- Generator: Adobe Illustrator 25.4.8, SVG Export Plug-In . SVG Version: 6.00 Build 0)  -->
<svg version="1.1" id="Warstwa_1" xmlns="http://www.w3.org/2000/svg" xmlns:xlink="http://www.w3.org/1999/xlink" x="0px" y="0px"
	 width="18" height="18" viewBox="0 0 18 18" enable-background="new 0 0 18 18" xml:space="preserve">
<path fill="#7F9DCC" d="M7.6,16.1L1.2,10c-0.2-0.2-0.2-0.5,0-0.7l6.5-6.1C7.8,2.9,8,2.9,8.2,3c0.2,0.1,0.3,0.3,0.3,0.5V6h1.6
	c0.3,0,0.5,0.2,0.5,0.5v6.1c0,0.3-0.2,0.5-0.5,0.5H8.5v2.6c0,0.2-0.1,0.4-0.3,0.5C8,16.3,7.8,16.2,7.6,16.1z"/>
<g>
	<path fill="#7F9DCC" d="M15.5,7H12c-0.3,0-0.5-0.2-0.5-0.5S11.7,6,12,6h3.5C15.8,6,16,6.2,16,6.5S15.8,7,15.5,7z"/>
</g>
<g>
	<path fill="#7F9DCC" d="M15.5,9H12c-0.3,0-0.5-0.2-0.5-0.5S11.7,8,12,8h3.5C15.8,8,16,8.2,16,8.5S15.8,9,15.5,9z"/>
</g>
<g>
	<path fill="#7F9DCC" d="M15.5,11H12c-0.3,0-0.5-0.2-0.5-0.5S11.7,10,12,10h3.5c0.3,0,0.5,0.2,0.5,0.5S15.8,11,15.5,11z"/>
</g>
<g>
	<path fill="#7F9DCC" d="M15.5,13H12c-0.3,0-0.5-0.2-0.5-0.5S11.7,12,12,12h3.5c0.3,0,0.5,0.2,0.5,0.5S15.8,13,15.5,13z"/>
</g>
</svg>
