<?xml version="1.0" encoding="utf-8"?>
<!-- Generator: Adobe Illustrator 25.4.8, SVG Export Plug-In . SVG Version: 6.00 Build 0)  -->
<svg version="1.1" id="Warstwa_1" xmlns="http://www.w3.org/2000/svg" xmlns:xlink="http://www.w3.org/1999/xlink" x="0px" y="0px"
	 width="18" height="18" viewBox="0 0 18 18" enable-background="new 0 0 18 18" xml:space="preserve">
<path fill="#7F9DCC" d="M13.5,6.5h-0.7V5c0-2.1-1.7-3.7-3.7-3.7S5.2,2.9,5.2,5v1.5H4.5C3.7,6.5,3,7.2,3,8v7.5C3,16.3,3.7,17,4.5,17
	h9c0.8,0,1.5-0.7,1.5-1.5V8C15,7.2,14.3,6.5,13.5,6.5z M6.7,5c0-1.2,1-2.2,2.2-2.2s2.2,1,2.2,2.2v1.5H6.7V5z M13.5,15.5h-9V8h9V15.5
	z M9,13.2c0.8,0,1.5-0.7,1.5-1.5S9.8,10.3,9,10.3s-1.5,0.7-1.5,1.5S8.2,13.2,9,13.2z"/>
</svg>
