<?xml version="1.0" encoding="utf-8"?>
<!-- Generator: Adobe Illustrator 25.4.8, SVG Export Plug-In . SVG Version: 6.00 Build 0)  -->
<svg version="1.1" id="Warstwa_1" xmlns="http://www.w3.org/2000/svg" xmlns:xlink="http://www.w3.org/1999/xlink" x="0px" y="0px"
	 width="18" height="18" viewBox="0 0 18 18" enable-background="new 0 0 18 18" xml:space="preserve">
<circle fill="#7F9DCC" cx="9" cy="11.8" r="1.5"/>
<path fill="#7F9DCC" d="M13.5,6.5h-0.7h-1.5H9.9H6.7V5c0-1.2,1-2.2,2.2-2.2c0.8,0,1.5,0.4,1.9,1l0,0C11,4,11.2,4.1,11.4,4.1
	c0.4,0,0.8-0.3,0.8-0.8c0-0.2-0.1-0.3-0.2-0.4l0,0c-0.7-1-1.8-1.6-3.1-1.6C6.9,1.3,5.2,2.9,5.2,5v1.5H4.5C3.7,6.5,3,7.2,3,8v7.5
	C3,16.3,3.7,17,4.5,17h9c0.8,0,1.5-0.7,1.5-1.5V8C15,7.2,14.3,6.5,13.5,6.5z M13.5,15.5h-9V8h9V15.5z"/>
</svg>
