<?xml version="1.0" encoding="utf-8"?>
<!-- Generator: Adobe Illustrator 25.4.8, SVG Export Plug-In . SVG Version: 6.00 Build 0)  -->
<svg version="1.1" id="Warstwa_1" xmlns="http://www.w3.org/2000/svg" xmlns:xlink="http://www.w3.org/1999/xlink" x="0px" y="0px"
	 width="18" height="18" viewBox="0 0 18 18" enable-background="new 0 0 18 18" xml:space="preserve">
<path fill="#7F9DCC" d="M11.9,8.2c-0.3,0-0.5-0.2-0.5-0.5V3.5c0-0.3,0.2-0.5,0.5-0.5s0.5,0.2,0.5,0.5v4.2C12.4,8,12.2,8.2,11.9,8.2z
	"/>
<path fill="#7F9DCC" d="M11.9,16c-0.3,0-0.5-0.2-0.5-0.5v-4.2c0-0.3,0.2-0.5,0.5-0.5s0.5,0.2,0.5,0.5v4.2C12.4,15.8,12.2,16,11.9,16
	z"/>
<path fill="#7F9DCC" d="M14.9,16H8.4c-3.6,0-6.5-2.9-6.6-6.5c0-1.7,0.7-3.4,1.9-4.6C4.9,3.7,6.5,3,8.2,3h6.6C15.5,3,16,3.5,16,4.1v3
	c0,0.6-0.5,1.1-1.1,1.1H8.3C7.6,8.2,7,8.8,7,9.5s0.6,1.3,1.3,1.3h6.6c0.6,0,1.1,0.5,1.1,1.1v3C16,15.5,15.5,16,14.9,16z M8.3,4
	C6.8,4,5.4,4.6,4.4,5.6S2.8,8.1,2.8,9.5c0,3,2.5,5.5,5.6,5.5h6.5c0.1,0,0.1,0,0.1-0.1v-3c0-0.1,0-0.1-0.1-0.1H8.3
	C7,11.8,6,10.8,6,9.5s1-2.3,2.3-2.3h6.6c0.1,0,0.1,0,0.1-0.1v-3C15,4,14.9,4,14.9,4H8.3z"/>
</svg>
