<?xml version="1.0" encoding="utf-8"?>
<!-- Generator: Adobe Illustrator 25.4.1, SVG Export Plug-In . SVG Version: 6.00 Build 0)  -->
<svg version="1.1" id="Warstwa_1" xmlns="http://www.w3.org/2000/svg" xmlns:xlink="http://www.w3.org/1999/xlink" x="0px" y="0px"
	 width="449.3px" height="123.6px" viewBox="0 0 449.3 123.6" style="enable-background:new 0 0 449.3 123.6;" xml:space="preserve"
	>
<style type="text/css">
	.st0{fill:#FFFFFF;}
	.st1{fill:#13F899;}
	.st2{opacity:0.35;fill:#A9EDD5;enable-background:new    ;}
	.st3{opacity:0.5;fill:#1A1B1E;enable-background:new    ;}
	.st4{fill:#2DE28B;}
</style>
<g id="Warstwa_2_00000078007944748054047780000011895363316872059059_" style="opacity: 0.2">
	<g id="Warstwa_1-2">
		<path class="st0" d="M191.3,84.1c-1.4,0-2.8-0.4-4-1.3c-1.2-1-1.8-2.5-1.6-4.1V43.3c-0.1-1.4,0.4-2.8,1.5-3.8
			c1-0.8,2.2-1.2,3.5-1.2H201c4.1-0.1,8.2,0.8,11.9,2.5c3.5,1.6,6.5,4.2,8.5,7.5c2.2,3.9,3.3,8.2,3.1,12.7c0,3.9-0.8,7.7-2.5,11.2
			c-1.6,3.4-4.1,6.4-7.1,8.6c-3.2,2.2-7.1,3.4-11,3.2L191.3,84.1z M195.2,79.3h6.1c3.3,0.1,6.6-0.8,9.5-2.5c2.6-1.6,4.7-3.9,6.1-6.7
			c1.4-2.9,2.1-6.1,2-9.3c-0.1-5.6-1.7-9.9-4.9-13c-3.5-3.2-8.2-4.9-12.9-4.6h-6c-2-0.3-3.8,1.1-4.1,3c0,0,0,0,0,0c0,0.3,0,0.7,0,1
			v28c-0.3,1.9,1.1,3.8,3,4.1C194.5,79.4,194.9,79.4,195.2,79.3z"/>
		<path class="st0" d="M256.2,84.1c-1.5,0.1-3-0.4-4.1-1.4c-1.1-1.1-1.7-2.6-1.6-4.2V43.4c-0.1-2.7,2.1-5,4.8-5.1h19.4
			c0.7-0.1,1.4,0.3,1.9,0.8c0.4,0.5,0.6,1.2,0.6,1.8c0,0.6-0.2,1.2-0.7,1.6c-0.5,0.5-1.1,0.7-1.7,0.7H260c-2-0.3-3.8,1.1-4,3.1
			c0,0.3,0,0.7,0,1v7.1c-0.3,2,1.1,3.8,3,4.1c0.3,0,0.7,0,1,0h13c1.2-0.2,2.3,0.6,2.4,1.8c0,0.2,0,0.4,0,0.6c0,1.5-0.8,2.2-2.4,2.2
			h-13c-1.9-0.2-3.7,1.1-4,3c0,0.3,0,0.7,0,1v7.9c-0.3,2,1.1,3.8,3,4.1c0.3,0,0.7,0,1,0h15.2c0.7-0.1,1.5,0.2,1.9,0.8
			c0.3,0.5,0.5,1.1,0.5,1.7c0,0.6-0.2,1.2-0.6,1.6c-0.4,0.6-1.1,0.9-1.9,0.8L256.2,84.1z"/>
		<path class="st0" d="M302.8,85.3c-0.8,0-1.5-0.3-2.1-0.9c-0.6-0.5-0.9-1.2-0.9-2c0-0.6,0.2-1.2,0.6-1.6l12.3-16.1
			c1-1.1,1.6-2.5,1.7-4c-0.1-1.2-0.6-2.4-1.4-3.3l-12.2-16c-0.3-0.4-0.5-0.9-0.5-1.4c0-0.8,0.3-1.6,0.9-2.1c0.6-0.5,1.3-0.8,2.1-0.8
			c0.9-0.1,1.7,0.3,2.2,1l10.8,15.3c0.8,1.2,1.7,1.8,2.5,1.8s1.7-0.6,2.6-1.8l10.9-15.3c0.5-0.6,1.2-1,2-0.9c0.8,0,1.6,0.2,2.2,0.8
			c0.6,0.5,1,1.2,0.9,2c0,0.5-0.1,1.1-0.5,1.5l-12.2,16c-0.5,0.6-0.9,1.2-1.2,1.8c-0.3,0.5-0.4,1.1-0.4,1.6c0.2,1.4,0.9,2.8,1.9,3.8
			l12.5,16.1c0.3,0.4,0.5,0.9,0.5,1.4c0,0.8-0.3,1.5-0.8,2.1c-0.5,0.6-1.3,1-2.1,0.9c-0.8,0.1-1.6-0.3-2.1-1l-11.6-16
			c-0.9-1.2-1.7-1.8-2.6-1.8s-1.7,0.6-2.5,1.8l-11.5,15.9C304.4,84.8,303.6,85.3,302.8,85.3z"/>
		<path class="st1" d="M368,84.1c-1.5,0.1-3-0.4-4.1-1.4c-1.1-1.1-1.7-2.6-1.6-4.2V43.4c-0.1-2.7,2.1-5,4.8-5.1h19.4
			c0.7-0.1,1.4,0.3,1.9,0.8c0.4,0.5,0.7,1.2,0.7,1.9c0,0.6-0.3,1.2-0.7,1.6c-0.5,0.5-1.1,0.7-1.7,0.7h-14.6c-2-0.3-3.8,1.1-4.1,3
			c0,0.3,0,0.7,0,1v7.1c-0.3,2,1.1,3.8,3,4.1c0,0,0,0,0,0c0.3,0,0.7,0,1,0h13c1.2-0.2,2.3,0.6,2.4,1.8c0,0,0,0,0,0
			c0,0.2,0,0.4,0,0.6c0,1.5-0.8,2.2-2.4,2.2h-13c-2-0.3-3.8,1.1-4.1,3.1c0,0.3,0,0.7,0,1v7.9c-0.3,2,1.1,3.8,3,4.1c0,0,0,0,0,0
			c0.3,0,0.7,0,1,0H387c0.7-0.1,1.5,0.2,1.9,0.8c0.3,0.5,0.5,1.1,0.5,1.7c0,0.6-0.2,1.2-0.6,1.6c-0.4,0.6-1.1,0.9-1.9,0.8L368,84.1z
			"/>
		<path class="st1" d="M418.8,85.3c-0.7,0-1.4-0.3-1.9-0.8c-0.5-0.5-0.7-1.2-0.7-1.8V43.8c-0.2-1.6,0.5-3.1,1.6-4.2
			c1.2-0.9,2.7-1.3,4.2-1.2h11.7c3.7-0.1,7.2,1.1,10.1,3.4c2.9,2.3,4.5,5.9,4.3,9.6c0.1,3.2-0.9,6.3-2.8,8.8
			c-1.7,2.3-4.1,3.9-6.8,4.6c1.4,0.5,2.6,1.3,3.6,2.5c1.3,1.5,2.4,3.3,3.1,5.2l3.7,9.2c0.1,0.4,0.2,0.8,0.2,1.2
			c0,1.4-1.1,2.6-2.5,2.6h-0.2c-1.2,0-2.2-0.7-2.6-1.9l-4.2-10.3c-0.9-2.4-2.6-4.4-4.8-5.7c-2-1.2-4.3-1.8-6.6-1.8h-2.9
			c-2-0.3-3.8,1.1-4.1,3c0,0,0,0,0,0c0,0.3,0,0.7,0,1l0.2,13c0,0.7-0.3,1.4-0.8,1.8C420.3,85,419.6,85.3,418.8,85.3z M425.5,60.8
			h7.3c2.4,0,4.8-0.8,6.8-2.2c2.1-1.5,3.2-4,3.1-6.5c0.2-2.6-0.9-5.2-3-6.8c-1.9-1.4-4.3-2.1-6.7-2.1h-7.5c-1.9-0.3-3.8,1.1-4.1,3
			c0,0.3,0,0.7,0,1v9.5c-0.2,2,1.1,3.7,3.1,4c0.3,0.1,0.7,0.1,1,0L425.5,60.8z"/>
		<path class="st2" d="M48.6,76l41.9,41.9c7.6,7.6,19.9,7.6,27.4,0l0,0c7.6-7.6,7.6-19.9,0-27.4L94.2,66.7c-2.7-2.7-2.7-7.1,0-9.9
			l23.7-23.7c7.6-7.6,7.6-19.9,0-27.4l0,0c-7.6-7.6-19.9-7.6-27.4,0l-43.2,43l0,0c-7.2,7.2-7.2,18.8,0,25.9c0,0,0,0,0,0l0,0L48.6,76
			z"/>
		<path class="st3" d="M97.1,69.7l-2.9-3c-2.7-2.7-2.7-7.1,0-9.9l3-3l-6.3-6.3L69.8,26.5L47.3,48.8c-7.2,7.2-7.2,18.8,0,25.9
			c0,0,0,0,0,0v0.1l1.3,1.3l21.1,21.1l22.4-22.4L97.1,69.7z"/>
		<path class="st4" d="M75,47.6L33.1,5.7c-7.6-7.6-19.8-7.6-27.4,0l0,0c-7.6,7.6-7.6,19.8,0,27.4l23.7,23.8c2.7,2.7,2.7,7.2,0,9.9
			c0,0,0,0,0,0l0,0L5.7,90.5c-7.6,7.6-7.6,19.9,0,27.4l0,0c7.6,7.6,19.8,7.6,27.4,0l43.1-43.2l0,0c7.2-7.1,7.2-18.8,0.1-25.9
			c0,0,0,0,0,0h-0.1L75,47.6z"/>
	</g>
</g>
</svg>
