<?xml version="1.0" encoding="utf-8"?>
<!-- Generator: Adobe Illustrator 20.1.0, SVG Export Plug-In . SVG Version: 6.00 Build 0)  -->
<svg version="1.1" id="Warstwa_1" xmlns="http://www.w3.org/2000/svg" xmlns:xlink="http://www.w3.org/1999/xlink" x="0px" y="0px"
	 viewBox="0 0 29 29" style="enable-background:new 0 0 29 29;" xml:space="preserve">
<style type="text/css">
	.st0{fill:none;stroke:#000000;stroke-linejoin:bevel;stroke-miterlimit:10;}
	.st1{fill:#000000;}
	.st2{display:none;}
</style>
<g id="multi_line">
	<polyline class="st0" points="7.5,16.5 10,11.5 12.5,19.5 16.5,9.5 19,16.5 21.5,9.4 	"/>
	<g>
		
			<ellipse transform="matrix(1 -6.340269e-03 6.340269e-03 1 -5.916753e-02 0.1365)" class="st1" cx="21.5" cy="9.4" rx="1.5" ry="1.5"/>
	</g>
	<g>
		<ellipse transform="matrix(1 -6.340269e-03 6.340269e-03 1 -0.1042 0.1208)" class="st1" cx="19" cy="16.5" rx="1.5" ry="1.5"/>
	</g>
	<g>
		
			<ellipse transform="matrix(1 -6.340269e-03 6.340269e-03 1 -0.1234 7.964682e-02)" class="st1" cx="12.5" cy="19.5" rx="1.5" ry="1.5"/>
	</g>
	<g>
		
			<ellipse transform="matrix(1 -6.340269e-03 6.340269e-03 1 -7.271355e-02 6.363511e-02)" class="st1" cx="10" cy="11.5" rx="1.5" ry="1.5"/>
	</g>
	<g>
		
			<ellipse transform="matrix(1 -6.340269e-03 6.340269e-03 1 -5.990206e-02 0.1048)" class="st1" cx="16.5" cy="9.5" rx="1.5" ry="1.5"/>
	</g>
	<g>
		
			<ellipse transform="matrix(1 -6.340269e-03 6.340269e-03 1 -0.1045 4.788504e-02)" class="st1" cx="7.5" cy="16.5" rx="1.5" ry="1.5"/>
	</g>
</g>
<g id="siatka" class="st2">
</g>
</svg>
