<?xml version="1.0" encoding="utf-8"?>
<!-- Generator: Adobe Illustrator 25.4.8, SVG Export Plug-In . SVG Version: 6.00 Build 0)  -->
<svg version="1.1" id="Warstwa_1" xmlns="http://www.w3.org/2000/svg" xmlns:xlink="http://www.w3.org/1999/xlink" x="0px" y="0px"
	 width="18" height="18" viewBox="0 0 18 18" enable-background="new 0 0 18 18" xml:space="preserve">
<path fill="#7F9DCC" d="M9,12c-1.6,0-3-1.3-3-3c0-1.6,1.3-3,3-3s3,1.3,3,3C12,10.6,10.6,12,9,12z M9,7.2C8,7.2,7.2,8,7.2,9
	S8,10.8,9,10.8S10.8,10,10.8,9S10,7.2,9,7.2z"/>
<path fill="#7F9DCC" d="M10.7,16c-0.1,0-0.3,0-0.4-0.1l-1.2-0.9c-0.1,0-0.2,0-0.3,0l-1.2,0.9C7.5,16,7.3,16,7.1,15.9
	c-0.6-0.2-1.2-0.4-1.7-0.7c-0.2-0.1-0.3-0.3-0.3-0.4l-0.2-1.5c-0.1-0.1-0.1-0.1-0.2-0.2l-1.5-0.2c-0.2,0-0.3-0.1-0.4-0.3
	c-0.3-0.5-0.5-1.1-0.7-1.7c0-0.2,0-0.4,0.1-0.5l0.9-1.2c0-0.1,0-0.2,0-0.3L2.2,7.6C2,7.5,2,7.3,2.1,7.1C2.2,6.5,2.5,6,2.8,5.4
	C2.9,5.3,3,5.1,3.2,5.1l1.5-0.2c0.1-0.1,0.1-0.1,0.2-0.2l0.2-1.5c0-0.2,0.1-0.3,0.3-0.4C6,2.5,6.5,2.2,7.1,2.1c0.2,0,0.4,0,0.5,0.1
	l1.2,0.9c0.1,0,0.2,0,0.3,0l1.2-0.9C10.5,2,10.7,2,10.9,2.1c0.6,0.2,1.2,0.4,1.7,0.7c0.2,0.1,0.3,0.3,0.3,0.4l0.2,1.5
	c0.1,0.1,0.1,0.1,0.2,0.2l1.5,0.2c0.2,0,0.3,0.1,0.4,0.3c0.3,0.5,0.5,1.1,0.7,1.7c0,0.2,0,0.4-0.1,0.5l-0.9,1.2c0,0.1,0,0.2,0,0.3
	l0.9,1.2c0.1,0.1,0.1,0.3,0.1,0.5c-0.2,0.6-0.4,1.2-0.7,1.7c-0.1,0.2-0.3,0.3-0.4,0.3l-1.5,0.2c-0.1,0.1-0.1,0.1-0.2,0.2l-0.2,1.5
	c0,0.2-0.1,0.3-0.3,0.4c-0.5,0.3-1.1,0.5-1.7,0.7C10.8,16,10.8,16,10.7,16z M6.3,14.3c0.3,0.1,0.6,0.3,0.9,0.4l1.2-0.9
	c0.1-0.1,0.3-0.1,0.4-0.1c0.2,0,0.4,0,0.5,0c0.1,0,0.3,0,0.4,0.1l1.2,0.9c0.3-0.1,0.6-0.2,0.9-0.4l0.2-1.4c0-0.1,0.1-0.3,0.2-0.4
	c0.1-0.1,0.4-0.4,0.4-0.4c0.1-0.1,0.2-0.2,0.3-0.2l1.4-0.2c0.1-0.3,0.3-0.6,0.4-0.9l-0.9-1.2c-0.1-0.1-0.1-0.3-0.1-0.4
	c0-0.2,0-0.6,0-0.6c0-0.1,0-0.3,0.1-0.4l0.9-1.2c-0.1-0.3-0.2-0.6-0.4-0.9l-1.4-0.2c-0.1,0-0.3-0.1-0.4-0.2
	c-0.1-0.1-0.3-0.3-0.4-0.4C12,5.4,12,5.2,11.9,5.1l-0.2-1.4c-0.3-0.1-0.6-0.3-0.9-0.4L9.7,4.2C9.6,4.3,9.4,4.3,9.3,4.3
	c-0.2,0-0.4,0-0.5,0c-0.1,0-0.3,0-0.4-0.1L7.2,3.3C6.9,3.4,6.6,3.5,6.3,3.7L6.1,5.1C6,5.2,6,5.4,5.9,5.5C5.7,5.6,5.6,5.7,5.5,5.9
	C5.4,6,5.2,6,5.1,6.1L3.7,6.3C3.5,6.6,3.4,6.9,3.3,7.2l0.9,1.2c0.1,0.1,0.1,0.3,0.1,0.4c0,0.2,0,0.6,0,0.6c0,0.1,0,0.3-0.1,0.4
	l-0.9,1.2c0.1,0.3,0.2,0.6,0.4,0.9l1.4,0.2c0.1,0,0.3,0.1,0.4,0.2c0.1,0.1,0.3,0.3,0.4,0.4C6,12.6,6,12.8,6.1,12.9L6.3,14.3z"/>
</svg>
