<?xml version="1.0" encoding="utf-8"?>
<!-- Generator: Adobe Illustrator 27.0.0, SVG Export Plug-In . SVG Version: 6.00 Build 0)  -->
<svg version="1.1" id="Warstwa_1" xmlns="http://www.w3.org/2000/svg" xmlns:xlink="http://www.w3.org/1999/xlink" x="0px" y="0px"
	 viewBox="0 0 18 18" enable-background="new 0 0 18 18" xml:space="preserve">
<path fill="#7F9DCC" d="M16.6,2c-0.3-0.3-0.8-0.4-1.2-0.2L1.8,7.2C1.3,7.4,1,7.9,1,8.4c0,0.5,0.4,1,0.9,1.1l3.5,0.7v4.3
	c0,0.5,0.3,0.9,0.7,1.1c0.1,0.1,0.3,0.1,0.5,0.1c0.3,0,0.6-0.1,0.8-0.3l1.9-1.9l2.9,2.6c0.2,0.2,0.5,0.3,0.8,0.3
	c0.1,0,0.3,0,0.4-0.1c0.4-0.1,0.7-0.5,0.8-0.9L17,3.2C17.1,2.8,16.9,2.3,16.6,2z M13,15.1L7,9.7l8.8-6.3L13,15.1z"/>
</svg>
