<?xml version="1.0" encoding="utf-8"?>
<!-- Generator: Adobe Illustrator 27.0.0, SVG Export Plug-In . SVG Version: 6.00 Build 0)  -->
<svg version="1.1" id="Warstwa_1" xmlns="http://www.w3.org/2000/svg" xmlns:xlink="http://www.w3.org/1999/xlink" x="0px" y="0px"
	 viewBox="0 0 18 18" enable-background="new 0 0 18 18" xml:space="preserve">
<path fill="#7F9DCC" d="M16.8,4.7l-2.2,2.2C14.2,12,9.9,16,4.7,16c-1.1,0-1.9-0.2-2.6-0.5c-0.5-0.3-0.8-0.6-0.8-0.6
	c-0.2-0.3-0.1-0.6,0.2-0.8c0,0,0.1,0,0.1-0.1c0,0,1.7-0.7,2.9-1.9c-0.7-0.5-1.3-1.1-1.8-1.8c-1-1.4-2.1-3.7-1.4-7.2
	c0-0.2,0.2-0.4,0.4-0.5c0.2-0.1,0.4,0,0.6,0.1c0,0,2.5,2.4,5.4,3.2V5.5C7.6,3.6,9.2,2,11.2,2c0,0,0,0,0,0c1.2,0,2.4,0.7,3,1.7h2.2
	c0.2,0,0.5,0.1,0.5,0.4C17,4.3,17,4.6,16.8,4.7z"/>
</svg>
