<?xml version="1.0" encoding="utf-8"?>
<!-- Generator: Adobe Illustrator 25.4.8, SVG Export Plug-In . SVG Version: 6.00 Build 0)  -->
<svg version="1.1" id="Warstwa_1" xmlns="http://www.w3.org/2000/svg" xmlns:xlink="http://www.w3.org/1999/xlink" x="0px" y="0px"
	 width="18" height="18" viewBox="0 0 18 18" enable-background="new 0 0 18 18" xml:space="preserve">
<path fill="#7F9DCC" d="M9,14.1c-5.6,0-7.9-4.9-8-5.1C1,8.9,1,8.7,1,8.6c0.1-0.2,2.3-5.1,8-5.1s7.9,4.9,8,5.1C17,8.7,17,8.9,17,9
	C16.9,9.2,14.6,14.1,9,14.1z M2.1,8.8c0.5,0.9,2.5,4.3,6.9,4.3s6.5-3.4,6.9-4.3C15.5,7.9,13.4,4.5,9,4.5S2.5,7.9,2.1,8.8z"/>
<path fill="#7F9DCC" d="M9,12c-1.8,0-3.2-1.4-3.2-3.2S7.2,5.6,9,5.6s3.2,1.4,3.2,3.2S10.8,12,9,12z M9,6.6c-1.2,0-2.2,1-2.2,2.2
	S7.8,11,9,11s2.2-1,2.2-2.2S10.2,6.6,9,6.6z"/>
</svg>
