<?xml version="1.0" encoding="utf-8"?>
<!-- Generator: Adobe Illustrator 25.4.8, SVG Export Plug-In . SVG Version: 6.00 Build 0)  -->
<svg version="1.1" id="Warstwa_1" xmlns="http://www.w3.org/2000/svg" xmlns:xlink="http://www.w3.org/1999/xlink" x="0px" y="0px"
	 width="18" height="18" viewBox="0 0 18 18" enable-background="new 0 0 18 18" xml:space="preserve">
<path fill="#7F9DCC" d="M8.2,13.8c-3.1,0-5.6-2.5-5.6-5.6s2.5-5.6,5.6-5.6s5.6,2.5,5.6,5.6S11.3,13.8,8.2,13.8z M8.2,3.8
	c-2.4,0-4.4,2-4.4,4.4s2,4.4,4.4,4.4s4.4-2,4.4-4.4S10.6,3.8,8.2,3.8z"/>
<path fill="#7F9DCC" d="M15.2,15.9c-0.2,0-0.3-0.1-0.4-0.2l-3.2-3.2c-0.2-0.2-0.2-0.6,0-0.9c0.2-0.2,0.6-0.2,0.9,0l3.2,3.2
	c0.2,0.2,0.2,0.6,0,0.9C15.6,15.8,15.4,15.9,15.2,15.9z"/>
</svg>
